STARTFONT 2.1
COMMENT
COMMENT Converted from OpenType font "Font 90 Icons.ttf" by "otf2bdf 3.0".
COMMENT
FONT -FreeType-Font 90 Icons-Medium-R-Normal--55-400-100-100-P-206-ISO10646-1
SIZE 40 100 100
FONTBOUNDINGBOX 60 58 0 -11
STARTPROPERTIES 19
FOUNDRY "FreeType"
FAMILY_NAME "Font 90 Icons"
WEIGHT_NAME "Medium"
SLANT "R"
SETWIDTH_NAME "Normal"
ADD_STYLE_NAME ""
PIXEL_SIZE 55
POINT_SIZE 400
RESOLUTION_X 100
RESOLUTION_Y 100
SPACING "P"
AVERAGE_WIDTH 206
CHARSET_REGISTRY "ISO10646"
CHARSET_ENCODING "1"
FONT_ASCENT 46
FONT_DESCENT 11
COPYRIGHT "Typeface © (el-harrak.blogspot.com). <darrati10@gmail.com>. All Rights Reserved"
_OTF_FONTFILE "Font 90 Icons.ttf"
_OTF_PSNAME "Font 90 Icons"
ENDPROPERTIES
CHARS 242
STARTCHAR 0000
ENCODING 0
SWIDTH 0 0
DWIDTH 0 0
BBX 0 0 0 0
BITMAP
ENDCHAR
STARTCHAR 001D
ENCODING 29
SWIDTH 0 0
DWIDTH 0 0
BBX 0 0 0 0
BITMAP
ENDCHAR
STARTCHAR 0020
ENCODING 32
SWIDTH 252 0
DWIDTH 14 0
BBX 0 0 0 0
BITMAP
ENDCHAR
STARTCHAR 0021
ENCODING 33
SWIDTH 990 0
DWIDTH 55 0
BBX 54 54 0 -9
BITMAP
000001FF000000
00001FFFF00000
0000FFFCFC0000
0003FFFF8F0000
0007FFFFE3C000
001FFFFFF0E000
003FFFFFF83800
007FFFFFFC1C00
00FFFFFFFE0E00
01FFFFFFFE0700
03FFFFFFFE0380
07FFFF87FF0180
07FFFF03FF00C0
0FFFFF01FF0060
1FFFFF01FF0060
1FFFFF01FF0030
3FFFFF03FF0030
3FFFFF87FF0018
3FFFFFFFFE0018
7FFFFFFFFE0018
7FFFFFFFFE000C
7FFFFFFFFC000C
7FFFFFFFF8000C
7FFFFFFFF0000C
FFFFFFFFE0000C
FFFFFFFFC0000C
FFFFFFFE00000C
FFFFFF8000000C
FFFFFC0000000C
FFFFF00000000C
7FFFE00000000C
7FFFC00000000C
7FFF800000000C
7FFF000000000C
7FFF0000000018
3FFE0000000018
3FFE0038000018
3FFE00FC000030
1FFE00FE000030
1FFE00FE000060
0FFE00FE000060
0FFE00FC0000C0
07FE007C0001C0
03FE0000000380
01FF0000000700
00FF0000000E00
007F8000001C00
003F8000003800
001FC000007000
000FE00001C000
0003F800078000
0000FE003E0000
00003FFFF80000
000007FF800000
ENDCHAR
STARTCHAR 0022
ENCODING 34
SWIDTH 990 0
DWIDTH 55 0
BBX 54 43 0 -4
BITMAP
00001FFFE00000
00001FFFF00000
00001C00700000
00001800300000
00003800300000
00003800300000
00003800300000
1FFFFFFFFFFFF0
3FFFFFFFFFFFF8
7FFFFFFFFFFFFC
7FFFFFFFFFFFFC
7FFFFFFFFFFFFC
FFFFFFFFFFFFFC
FFFFFFFFFFFFFC
FFFFFFFFFFFFFC
FFFFFFFFFFFFFC
FFFFFFFFFFFFFC
FFFFFFFFFFFFFC
FFFFFFFFFFFFFC
FFFFFFFFFFFFFC
FFFFFFFFFFFFFC
FFFFFFFFFFFFFC
FFFFFFFFFFFFFC
FFFFFFFFFFFFFC
FFFFFFFFFFFFFC
FFFFFFFFFFFFFC
FFFFFFFFFFFFFC
FFFFFFFFFFFFFC
FFFFFFFFFFFFFC
FFFFFFFFFFFFFC
FFFFFFFFFFFFFC
FFFFFFFFFFFFFC
FFFFFFFFFFFFFC
FFFFFFFFFFFFFC
FFFFFFFFFFFFFC
FFFFFFFFFFFFFC
FFFFFFFFFFFFFC
FFFFFFFFFFFFFC
7FFFFFFFFFFFFC
7FFFFFFFFFFFFC
7FFFFFFFFFFFFC
3FFFFFFFFFFFF8
0FFFFFFFFFFFE0
ENDCHAR
STARTCHAR 0023
ENCODING 35
SWIDTH 990 0
DWIDTH 55 0
BBX 51 57 2 -11
BITMAP
0001FF80000000
000FFFF0000000
FC3FFFFE000000
FC7FFFFFC00000
FCFFFFFFF00200
FCFFFFFFFFFE00
7CFFFFFFFFFE00
7EFFFFFFFFFE00
7EFFFFFFFFFE00
7E7FFFFFFFFE00
7E7FFFFFFFFF00
7E7FFFFFFFFF00
3E7FFFFFFFFF00
3F7FFFFFFFFF00
3F3FFFFFFFFF00
3F3FFFFFFFFF00
3F3FFFFFFFFF80
1F3FFFFFFFFF80
1FBFFFFFFFFF80
1FBFFFFFFFFF80
1F9FFFFFFFFF80
1F9FFFFFFFFF80
1F9FFFFFFFFF80
0F9FFFFFFFFFC0
0FDFFFFFFFFFC0
0FCFFFFFFFFFC0
0FCFF801FFFFC0
0FCFE0003FFFC0
07CF80000FFFC0
07EE000001FFE0
07E80000007FE0
07E00000000FE0
07E00000000000
07E00000000000
03E00000000000
03F00000000000
03F00000000000
03F00000000000
03F00000000000
03F00000000000
01F00000000000
01F80000000000
01F80000000000
01F80000000000
01F80000000000
00F80000000000
00FC0000000000
00FC0000000000
00FC0000000000
00FC0000000000
00FC0000000000
007C0000000000
007E0000000000
007E0000000000
007E0000000000
007E0000000000
00180000000000
ENDCHAR
STARTCHAR 0024
ENCODING 36
SWIDTH 990 0
DWIDTH 55 0
BBX 54 54 0 -9
BITMAP
00F00000000000
03FC0000000000
07FE0000000000
0FFF0000000000
1FFF0000000000
3FFF8000000000
7FFFC000000000
7FFFE000000000
7FFFF000000000
FFFFF800000000
FFFFFE00000000
7FFFFF00000000
7FFFFF80000000
3FFFFFE0000000
3FFFFFD0000000
0FFFFFB8000000
07FFFF7C000000
03FFFEFE000000
01FFFDFF800000
00FFFBFFC00000
007FF7FF800000
003FEFFF000000
001FDFFE000000
001FBFFC000000
000F7FF8000000
0006FFF0000000
0005FFE8000000
0003FFD8000000
0001FFBC000000
0000FF0E000000
00007E07000000
00003C03800000
00003801C00000
00001000E00000
00000000700000
00000000380000
000000001C0000
000000000E0000
00000000070000
00000000038000
00000000018000
00000000004000
00000000002000
00000000001000
00000000000800
00000000000400
00000000000200
00000000000100
00000000000080
00000000000040
00000000000020
00000000000010
00000000000008
00000000000004
ENDCHAR
STARTCHAR 0025
ENCODING 37
SWIDTH 990 0
DWIDTH 55 0
BBX 51 57 2 -11
BITMAP
000003F0000000
000007F8000000
000007FC000000
000007FC000000
000007FC000000
00000FFE000000
00007FFFC00000
0001FFFFF00000
0007FFFFFC0000
001FFFFFFE0000
003FFFFFFF8000
007FFFFFFFC200
7FFFFBFBFFFF80
7FFFC3F07FFFC0
FFFF03F03FFFE0
FFFE01F00FFFE0
FFFC01F007FFE0
FFFC01E007FFE0
FFFE01E00FFFC0
7FFF00E01FFF80
1FFF80E03FFF00
1FFFC0E07FFF00
1FFFE0E0FFFF00
1FFFF1E1FF7F00
3F87FFFFF87F00
3F807FFF803F80
3F801FFE003F80
3F800FFE003F80
3F800FFE003F80
3F800FFE003F80
3F803FFF003F80
3F81FFFFE07F80
3FCFFFF7FF7F00
1FFFF0E1FFFF00
1FFFC0E0FFFF00
1FFF80E07FFF00
3FFF00E03FFF80
7FFE01E01FFFC0
FFFC01F00FFFE0
FFFC01F007FFE0
FFFE01F00FFFE0
FFFF03F01FFFE0
FFFF83F87FFFC0
7FFFF3F9FFFFC0
1C7FFFFFFFC700
003FFFFFFF8000
001FFFFFFF0000
000FFFFFFE0000
0003FFFFF80000
0000FFFFE00000
00003FFF000000
000007FC000000
000007FC000000
000007FC000000
000007F8000000
000003F8000000
000001E0000000
ENDCHAR
STARTCHAR 0026
ENCODING 38
SWIDTH 990 0
DWIDTH 55 0
BBX 54 54 0 -9
BITMAP
000001FE000000
00001FFFF00000
0000FFFFFC0000
0003FFC7FF0000
0007F0003FC000
001FC00007E000
003F000001F800
007C00FC007C00
00F80FFFC03E00
01E03FFFF01F00
03C0FFFFFC0F80
0781FFFFFF0780
0783FFFFFF83C0
0F07FFFFFFC1E0
0E0FFFFFFFE1E0
1E1FFFFFFFE0F0
1C1FFFFFFFF070
3C3F3FFFFFF870
387F1FFFFFF878
787F8FFFE7FC38
787FC7FFC7FC38
70FFE3FF8FFC3C
70FFF1FF1FFE1C
70FFF8FE3FFE1C
70FFFC7C7FFE1C
F0FFFE38FFFE1C
F1FFFF01FFFE1C
F1FFFFC3FFFE1C
F0FFFF83FFFE1C
F0FFFFC3FFFE1C
70FFFFEFFFFE1C
70FFFFFFFFFE1C
70FFFFFFFFFC3C
707FFFFFFFFC38
787FFFFFFFFC38
387FFFFFFFF838
3C3FFFFFFFF878
3C3FFFFFFFF070
1E1FFFFFFFF0F0
1E0FFFFFFFE0E0
0F07FFFFFFC1E0
0703FFFFFF83C0
0781FFFFFF0780
03C0FFFFFC0F80
01E03FFFF81F00
00F00FFFE03E00
007C01FF007C00
003E000001F800
001F800003F000
000FE0001FC000
0003FE01FF8000
0000FFFFFE0000
00003FFFF00000
000003FF800000
ENDCHAR
STARTCHAR 0027
ENCODING 39
SWIDTH 990 0
DWIDTH 55 0
BBX 53 55 1 -10
BITMAP
0000FF80000000
0007FFF0000000
001FFFFC000000
007FFFFF000000
00FFFFFF800000
03FFFFFFE00000
07FFFFFFF00000
0FFFFFFFF80000
0FFFC1FFF80000
1FFE003FFC0000
3FF8000FFE0000
3FF01C07FE0000
7FE03E03FF0000
7FC03E01FF0000
7F803E00FF0000
FF803E00FF8000
FF003E007F8000
FF003E007F8000
FF0FFFF87F8000
FF1FFFFC7F8000
FF1FFFFC7F8000
FF1FFFFC7FC000
FF1FFFFC7F8000
FF0FFFF07F8000
FF003E007F8000
FF003E007F8000
FF803E00FF8000
7F803E00FF0000
7FC03E01FF0000
7FE03E03FF0000
3FF01C07FE0000
3FF8000FFE0000
1FFC001FFF0000
0FFF80FFFF8000
0FFFFFFFFFC000
07FFFFFFFFE000
03FFFFFFFFF000
01FFFFFFFFF800
007FFFFFFFFC00
003FFFFFFFFE00
000FFFF3FFFF00
0001FF81FFFF80
00000000FFFFC0
000000007FFFE0
000000003FFFF0
000000001FFFF8
000000000FFFF8
0000000007FFF8
0000000003FFF8
0000000001FFF8
0000000000FFF8
00000000007FF0
00000000003FE0
00000000001FC0
00000000000300
ENDCHAR
STARTCHAR 0028
ENCODING 40
SWIDTH 990 0
DWIDTH 55 0
BBX 54 54 0 -10
BITMAP
0000FFE0000000
0007FFFC000000
001FFFFF000000
007FFFFFC00000
00FFFFFFE00000
01FFFFFFF00000
03FFFFFFF80000
07FFFFFFFC0000
0FFF803FFE0000
0FFE000FFE0000
1FFC0007FF0000
1FF80001FF0000
3FF00001FF8000
3FE00000FF8000
7FC000007FC000
7FC000007FC000
7F8000003FC000
7F8000003FC000
7F87FFFC3FC000
FF8FFFFE3FE000
FF9FFFFE3FE000
FF9FFFFE3FE000
FF8FFFFC3FE000
7F8000003FC000
7F8000003FC000
7F8000003FC000
7FC000007FC000
3FC000007F8000
3FE00000FF8000
3FF00001FF8000
1FF80003FF0000
1FFC0007FF8000
0FFF001FFFC000
07FFE0FFFFE000
03FFFFFFFFF000
03FFFFFFFFF800
01FFFFFFFFFC00
007FFFFFFFFE00
003FFFFFFFFF00
000FFFFFFFFF80
0003FFF9FFFFC0
00007F80FFFFE0
000000007FFFF0
000000003FFFF8
000000001FFFF8
000000000FFFFC
0000000007FFFC
0000000003FFFC
0000000001FFFC
0000000000FFFC
00000000007FFC
00000000003FF8
00000000001FF0
00000000000FE0
ENDCHAR
STARTCHAR 0029
ENCODING 41
SWIDTH 990 0
DWIDTH 55 0
BBX 53 41 1 -3
BITMAP
7FFFFFFFFFFFF0
FFFFFFFFFFFFF8
FFFFFFFFFFFFF8
F80000000001F8
FC0000000003F8
FE0000000007F8
FF000000000FF8
EF800000001FB8
E7C00000003F38
E3E00000007E38
E1F0000000FC38
E0F8000001F838
E07C000003F038
E03E000007E038
E01F00000FC038
E00F80001F8038
E007C0003F0038
E003E0007E0038
E001F000FC0038
E000F801F80038
E0007C03F00038
E000FE07F80038
E001FF0FFC0038
E003EFFFBE0038
E007C7FF1F0038
E00F83FE0F8038
E01F01FC07C038
E03E000003E038
E07C000001F038
E0F8000000F838
E1F00000007C38
E3E00000003E38
E7C00000001F38
EF800000000FB8
FF0000000007F8
FE0000000003F8
FC0000000001F8
FFFFFFFFFFFFF8
FFFFFFFFFFFFF8
FFFFFFFFFFFFF8
1FFFFFFFFFFFC0
ENDCHAR
STARTCHAR 002A
ENCODING 42
SWIDTH 990 0
DWIDTH 55 0
BBX 47 57 4 -11
BITMAP
00000FC00000
00000FE00000
00000FE00000
00000FE00000
00000FE00000
00000FE00000
00000FE00000
00000FE00000
00000FE00000
00000FE00000
00000FE00000
00000FE00000
00000FE00000
00000FE00000
00780FE07800
00FE0FE1F800
00FF8FE7F800
007FEFFFF800
007FFFFFF800
003FFFFFF000
001FFFFFE000
000FFFFFC000
1FF7FFFFBFF0
3FFBFFFF7FF8
3FFDFFFEFFF8
1FFEFFFDFFF0
CFFF7FFBFFEE
E7FFBFF7FFDE
F3FFDFEFFFBE
F9FFEFDFFF7E
FCFFF73FFEFE
FF7FF8FFFDFE
FFBFFFFFFBFE
FFDFFFFFF7FE
FFEFFFFFEFFE
FFF7FFFFDFFE
FFFBFFFFBFFE
FFFDFFFF7FFE
FFFEFFFEFFFE
FFFE7FFDFFFE
FFFE3FF9FFFE
FFFC9FF2FFFE
FFF9CFEF7FFE
FFF3E39FBFFE
FFE7F03FDFFE
FFCFFFFFEFFE
FF9FFFFFF7FE
FF3FFFFFFBFE
FE7FFFFFFDFE
FEFFFFFFFEFE
FDFFFFFFFF7E
FBFFFFFFFFBE
F7FFFFFFFFDE
EFFFFFFFFFEE
9FFFFFFFFFF4
3FFFFFFFFFF8
3FFFFFFFFFF8
ENDCHAR
STARTCHAR 002B
ENCODING 43
SWIDTH 990 0
DWIDTH 55 0
BBX 53 54 1 -9
BITMAP
FFFFFFFFFFFFF8
FFFFFFFFFFFFF8
FFFFFFFFFFFFF8
FFFFFFFFFFFFF8
FFFFFFFFFFFFF8
FFFFFFFFFFFFF8
FFFFFFFFFFFFF8
FC3FFFFFFFF1F8
FC007FFFF001F8
FC00FFFFF801F8
FC01FFFFFC01F8
FC01FFFFFC01F8
FC00FFFFF801F8
FC007FFFF001F8
FC003FFFE001F8
FC001FFFC001F8
FC401FFFC011F8
FCE03FFFE039F8
FDF07FFFF07DF8
FFF8FFFFF8FFF8
FFFDFFFFFDFFF8
FFFFFFFFFFFFF8
FFFFFFFFFFFFF8
FFFFFFFFFFFFF8
FFFFFFFFFFFFF8
FFFFFFFFFFFFF8
FFFFFFFFFFFFF8
FFFFFFFFFFFFF8
FFFFFFFFFFFFF8
FFFFFFFFFFFFF8
FFFFFFFFFFFFF8
FFFFFFFFFFFFF8
FFFFFFFFFFFFF8
FFFDFFFFFFFFF8
FFF9FFFFF9FFF8
FDF0FFFFF0FDF8
FCE07FFFE079F8
FC403FFFC031F8
FC001FFFC001F8
FC003FFFE001F8
FC007FFFF001F8
FC00FFFFF801F8
FC01FFFFFC01F8
FC01FFFFFC01F8
FC00FFFFF801F8
FC007FFFF001F8
FC00FFFFF801F8
FFFFFFFFFFFFF8
FFFFFFFFFFFFF8
FFFFFFFFFFFFF8
FFFFFFFFFFFFF8
FFFFFFFFFFFFF8
FFFFFFFFFFFFF8
FFFFFFFFFFFFF8
ENDCHAR
STARTCHAR 002C
ENCODING 44
SWIDTH 990 0
DWIDTH 55 0
BBX 54 54 0 -9
BITMAP
00000000000800
0000000003FC00
00000000FFFE00
00000003FFFF00
00000007FFFF80
0000000FFFFFC0
0000001FFFFFE0
0000003FFFFFF0
0000007FFFEFF8
000000FFFFC7FC
000001FFFF83FC
000003FFFF01FC
000007FFFF83FC
00000FFFFFC7FC
00001FFFFFEFF8
00003FFFFFFFF8
00007FFFFFFFF8
0000FFFFFFFFF8
0001FFFFFFFFF8
0003FFFFFFFFF8
0007FFFFFFFFF0
000FFFFFFFFFF0
001FFFFFFFFFF0
003F3FFFFFFFF0
007E1FFFFFFFE0
00FF0FFFFFFFC0
01FF87FFFFFF80
03F7C3FFFFFF00
07E3E1FFFFFE00
0FE1F0FFFFFC00
1FF0F87FFFF800
3FF87C3FFFF000
7FFC3E1FFFE000
FFFE1F0FFFC000
3FFF0F87FF8000
1FFF87C3FF0000
0FFFC3E1FE0000
07FFE1F0FC0000
03FFF0F9F80000
01FFF87FF00000
00FFFC3FE00000
007FFE1FC00000
003FFF1F800000
001FFFBF000000
000FFFFE000000
0007FFFC000000
0003FFF8000000
0001FFF0000000
0000FFE0000000
00007FC0000000
00003F80000000
00001F00000000
00000E00000000
00000400000000
ENDCHAR
STARTCHAR 002D
ENCODING 45
SWIDTH 990 0
DWIDTH 55 0
BBX 54 54 0 -9
BITMAP
0000017E000000
00001FFFE00000
0000FFFFFC0000
0003FFFFFF0000
0007F8003FC000
001FC0000FE000
003F000003F800
007E000000FC00
00F80000003E00
01F00000001F00
03F00000080F80
07F800001C0780
079C00003C03C0
0F0E00007C03E0
0F070000FC01E0
1E038001FC00F0
1C01C003FC00F0
3C00E007FC0070
3C007807FC0078
3800000FFC0078
78007FFFFC0038
78007FFFFC003C
70007FFFFC003C
70007FFFFC003C
70007FFFFC001C
F0007FFFFC001C
F0007FFFFC001C
F0007FFFFC001C
F0007FFFFC001C
F0007FFFFC001C
70007FFFFC001C
70007FFFFC003C
70007FFFFC003C
78007FFFFC003C
7800001FFC0038
3800000FFC0078
3C000007FC0078
3C000003FD00F0
1E000001FD00F0
1E000000FD81E0
0F0000007DC1E0
078000003CE3C0
07C000001C7780
03C00000083F80
01F00000001F00
00F80000003E00
007C0000007C00
003F000001F800
001F800007F000
000FF0001FC000
0003FF83FF8000
0000FFFFFE0000
00003FFFF00000
000003FF800000
ENDCHAR
STARTCHAR 002E
ENCODING 46
SWIDTH 990 0
DWIDTH 55 0
BBX 47 57 4 -11
BITMAP
0FFFFFFFFFF0
0FFFFFFFFFF8
0E0000000038
0C0000000038
0C0000000038
0C0000000038
0C0000000038
0C0000000038
0C0000000038
0C0000000038
0C0000000038
0C0000000038
0C0000000038
0C0000000038
0C0000000038
0C0000000038
0C0000000038
0C0000000038
0C0000000038
0C0000000038
0C0000000038
0C0000000038
0C0000000038
0C0000000038
0C0000000038
0C0000000038
0E0000000038
0FFFFFFFFFF8
0FFFFFFFFFF0
000000000000
000000000000
000000000000
0FFFFFFFFFF0
0FFFFFFFFFF8
0FFFFFFFFFF8
0FFFFFFC01F8
0FFFFFFC01F8
0FFFFFFC01F8
0FFFFFFFFFF8
0FFFFFFFFFF8
0FFFFFFFFFF8
0FFFFFFFFFF8
0FFFFFFFFFF0
000001800000
000001800000
000001800000
000001800000
000001800000
000001800000
000001800000
0001FFFF8000
0001FFFF8000
0001FFFF8000
FFFFFFFFFFFE
FFFFFFFFFFFE
0001FFFF8000
0001FFFF8000
ENDCHAR
STARTCHAR 002F
ENCODING 47
SWIDTH 990 0
DWIDTH 55 0
BBX 54 56 0 -10
BITMAP
00000030000000
030001FF000300
038007FF800380
03C00FFFE00780
03C01FFFE00700
01E01FFFF00F00
01E03FFFF80E00
00E03FFFF81E00
60F07FFFF81E1C
70F07FFFF83C1C
70F07FFFF83C3C
78787FFFFC3C3C
78787FFFFC3C38
38787FFFFC7C78
3C7C7FFFFC7878
3C7C7FFFFC7878
3C3C7FFFFC7878
3C3C7FFFFC78F0
3C3C7FFFFCF8F0
3E3C7FFFFCF8F0
3E3C7FFFFCF8F0
3E3C7FFFFCF8F0
1E3C7FFFFCF8F0
1E3C7FFFFCF8F0
1E3C7FFFFCF8F0
3E3C7FFFFCF8F0
3E3C7FFFFCF8F0
3C3C7FFFFCF8F0
3C3C7FFFFC78F0
3C3C7FFFFC78F8
3C7C7FFFFC7878
3C7C7FFFFC7878
38787FFFFC7C78
78787FFFF87C78
78787FFFF83C38
78F83FFFF83C3C
70F03FFFF83C1C
F0F03FFFF01E1C
60F01FFFF01E0C
01E00FFFE01E00
01E007FFC00F00
01C003FF800F00
03C003FF000700
038003FF000780
038003FF000380
000003FF000000
000003FF000000
000003FF000000
000003FF000000
000003FF000000
000003FF000000
000003FF000000
000003FF000000
000003FF000000
000001FF000000
000000FE000000
ENDCHAR
STARTCHAR 0030
ENCODING 48
SWIDTH 990 0
DWIDTH 55 0
BBX 54 54 0 -9
BITMAP
0000007E000000
00001FFFE00000
0000FFFFFC0000
0003FFFFFF0000
0007FFFFFFC000
001FFFFFFFE000
003FFFFFFFF800
007FFFFFFFFC00
00FFFFFFFFFE00
01FFFFFFFBFF00
03FE3FFFF8FF00
07FC3FFFF07F80
07F81FFFF03FC0
0FF01FFFE01FE0
0FE00FFFE00FE0
1FC007FFC00FF0
1FC007FF8007F0
3F8003FF8003F8
3F8003FF0003F8
7F0001FF0001F8
7F0001FE0001F8
7E0001FF0001FC
7E0003FF8001FC
7E0007CFC000FC
7E000F03C000FC
FE000F01C000FC
FE000E01C000FC
FFFFFE01FFFFFC
FFFFFE01FFFFFC
FFFFFF01FFFFFC
7FFFFF83FFFFFC
7FFFFFFFFFFFFC
7FFFFFFFFFFFFC
7FFFFFFFFFFFFC
7FFFFE01FFFFF8
3FFFFC00FFFFF8
3FFFFC007FFFF8
3FFFF8007FFFF0
1FFFF8003FFFF0
1FFFF0003FFFE0
0FFFF0001FFFE0
0FFFE0001FFFC0
07FFC0000FFFC0
03FFC00007FF80
01FF800007FF00
00FF800007FE00
00FFF0001FFC00
003FFE01FFF800
001FFFFFFFF000
000FFFFFFFE000
0003FFFFFF8000
0001FFFFFE0000
00003FFFF80000
000007FFC00000
ENDCHAR
STARTCHAR 0031
ENCODING 49
SWIDTH 990 0
DWIDTH 55 0
BBX 52 57 1 -11
BITMAP
000007FF000000
000007FF000000
000007FF000000
000007FF000000
000007FF000000
000007FF000000
000087FF080000
000387FF0E0000
000F87FF0F0000
001F87FF0FC000
003F87FF0FE000
00FF87FF0FF000
01FF87FF0FF800
03FF87FF0FFC00
03FF87FF0FFE00
07FF07FF07FF00
0FFE07FF03FF00
0FF807FF01FF80
1FF807FF00FF80
1FF007FF007FC0
3FE007FF003FC0
3FC007FF003FE0
7FC007FF001FE0
7F8007FF001FE0
7F8007FF000FF0
7F8007FF000FF0
FF0007FF000FF0
FF0007FF000FF0
FF0007FF0007F0
FF0007FF0007F0
FF0007FF0007F0
FF0003FE0007F0
FF0000000007F0
FF000000000FF0
FF000000000FF0
FF000000000FF0
7F800000000FF0
7F800000001FF0
7FC00000001FE0
3FC00000003FE0
3FE00000003FE0
3FE00000007FC0
1FF0000000FFC0
1FF8000001FF80
0FFC000003FF80
07FE000007FF00
07FF80000FFE00
03FFE0003FFC00
01FFF801FFFC00
00FFFFFFFFF800
007FFFFFFFF000
003FFFFFFFC000
000FFFFFFF8000
0007FFFFFE0000
0001FFFFF80000
00003FFFE00000
000007FE000000
ENDCHAR
STARTCHAR 0032
ENCODING 50
SWIDTH 990 0
DWIDTH 55 0
BBX 51 57 2 -11
BITMAP
000003F0000000
000007F8000000
000007FC000000
000007FC000000
00000FFC000000
000007FC000000
000007FC000000
000007FC000000
000007F8000000
000007F8000000
000007F8000000
000007F8000200
7F0003F8001F80
7F8003F0007FC0
FFE003F000FFE0
FFF003F001FFE0
FFF801F003FFE0
FFFC01E007FFC0
FFFE01E00FFFC0
7FFE01E01FFF80
1FFF00E03FFF00
0FFF80E07FFC00
01FFE0E0FFF000
007FF1E3FF0000
0007FFFFF00000
00007FFF800000
00001FFE000000
00000FFE000000
00000FFC000000
00000FFE000000
00003FFF000000
0001FFFFE00000
000FFFF7FE0000
00FFF1E1FFE000
03FFC0E0FFFC00
0FFF80E07FFF00
3FFF01E03FFF80
7FFE01E01FFFC0
FFFC01F00FFFE0
FFF801F007FFE0
FFF003F003FFE0
FFE003F000FFE0
FFC003F8007FC0
7F0003F8003FC0
3C0003F8000F00
000007F8000000
000007F8000000
000007FC000000
000007FC000000
000007FC000000
000007FC000000
000007FC000000
000007FC000000
000007FC000000
000007F8000000
000003F8000000
000001E0000000
ENDCHAR
STARTCHAR 0033
ENCODING 51
SWIDTH 990 0
DWIDTH 55 0
BBX 53 51 1 -8
BITMAP
00000020000000
00000060000000
00000070000000
000000F0000000
000000F8000000
000001F8000000
000001FC000000
000003FC000000
000003FE000000
000007FE000000
000007FF000000
00000FFF000000
00000FFF800000
00001FFF800000
00001FFFC00000
00003FFFC00000
00003FFFE00000
001FFFFFFFC000
0FFFFFFFFFFF80
FFFFFFFFFFFFF8
7FFFFFFFFFFFF0
3FFFFFFFFFFFE0
1FFFFFFFFFFFC0
0FFFFFFFFFFF80
07FFFFFFFFFF00
03FFFFFFFFFE00
01FFFFFFFFFC00
00FFFFFFFFF800
007FFFFFFFF000
003FFFFFFFE000
001FFFFFFFC000
000FFFFFFF0000
0007FFFFFF0000
0007FFFFFF0000
000FFFFFFF0000
000FFFFFFF0000
000FFFFFFF0000
000FFFFFFF8000
000FFFFFFF8000
000FFFFFFF8000
001FFFFFFF8000
001FFFFFFF8000
001FFF9FFFC000
001FFF07FFC000
001FFC01FFC000
001FF0007FC000
003FC0001FC000
003F000007C000
003C000001E000
00300000006000
00400000002000
ENDCHAR
STARTCHAR 0034
ENCODING 52
SWIDTH 990 0
DWIDTH 55 0
BBX 54 39 0 -2
BITMAP
1FFFFFFFFFFFF0
1FFFFFFFFFFFF0
0FFFFFFFFFFFE0
67FFFFFFFFFFCC
F3FFFFFFFFFF9C
F9FFFFFFFFFF3C
FCFFFFFFFFFE7C
FE7FFFFFFFFCFC
FF3FFFFFFFF9FC
FF9FFFFFFFF3FC
FFCFFFFFFFE7FC
FFE7FFFFFFCFFC
FFF3FFFFFF9FFC
FFF9FFFFFF3FFC
FFFCFFFFFE7FFC
FFFE7FFFFCFFFC
FFFF3FFFF9FFFC
FFFF9FFFF3FFFC
FFFFCFFFE7FFFC
FFFFC7FFCFFFFC
FFFFC3FF87FFFC
FFFFB9FF33FFFC
FFFF7CFE79FFFC
FFFEFE78FCFFFC
FFFDFF01FE7FFC
FFFBFFEFFF3FFC
FFF7FFFFFF9FFC
FFEFFFFFFFCFFC
FFDFFFFFFFE7FC
FFBFFFFFFFF3FC
FF7FFFFFFFF9FC
FEFFFFFFFFFCFC
FDFFFFFFFFFE7C
FBFFFFFFFFFF3C
F7FFFFFFFFFF9C
6FFFFFFFFFFFCC
1FFFFFFFFFFFE0
1FFFFFFFFFFFF0
1FFFFFFFFFFFE0
ENDCHAR
STARTCHAR 0035
ENCODING 53
SWIDTH 990 0
DWIDTH 55 0
BBX 54 42 0 -4
BITMAP
000000780FE000
000000FC1FE000
000001CF1FE000
000007879FE000
00000E11FFE000
00003C38FFE000
000078FC3FE000
0001E1FF1FE000
0003C7FF87E000
000F0FFFE3E000
001E3FFFF0F000
00787FFFF87800
00F1FFFFFE1C00
03C3FFFFFF0F00
0787FFFFFFC380
0E1FFFFFFFE1E0
3C3FFFFFFFF8F0
78FFFFFFFFFC3C
E0FFFFFFFFFC1C
00FFFFFFFFFC00
00FFFFFFFFFC00
00FFFFFFFFFC00
00FFFFFFFFFC00
00FFFE00FFFC00
00FFFE00FFFC00
00FFFE00FFFC00
00FFFE00FFFC00
00FFFE00FFFC00
00FFFE00FFFC00
00FFFE00FFFC00
00FFFE00FFFC00
00FFFE00FFFC00
00FFFE00FFFC00
00FFFE00FFFC00
00FFFE00FFFC00
00FFFE00FFFC00
00FFFE00FFFC00
00FFFE00FFFC00
00FFFE00FFFC00
007FFE00FFFC00
007FFE00FFF800
003FFE00FFF000
ENDCHAR
STARTCHAR 0036
ENCODING 54
SWIDTH 990 0
DWIDTH 55 0
BBX 53 57 1 -11
BITMAP
0070000003C000
01FC00000FF000
01FE00000FF000
03FE00001FF800
03FE00001FF800
03FE00001FF800
03FE00000FF000
01FC00000FF000
00F8000003C000
00000000000000
000000001FF800
3FFFE0007FFE00
7FFFF000FFFF00
FFFFF801FFFF80
FFFFF801FFFF80
FFFFFC03FFFF80
FFFFFC03FFFFC0
FFFFFC03DFFBC0
F7FFBC03DFFBC0
F7FFBC07FFFFE0
F7FFBC07BFFDE0
F7FFBC07BFFDE0
F7FFBC0FBFFDE0
F7FFBC0F7FFEF0
F7FFBC0F7FFEF0
F7FFBC0F7FFEF0
F7FFBC1EFFFE78
F7FFBC1EFFFF78
F7FFBC1EFFFF78
F7FFBC1EFFFF78
F7FFBC0DFFFF90
E7FFB801FFFF80
67FF9801FFFF80
07DF8003FFFFC0
07DF8003FFFFC0
07DF8003FFFFC0
07DF8003FFFFC0
07DF8007FFFFE0
07DF8007FFFFE0
07DF80001FF800
07DF80001FF800
07DF80001FF800
07DF80001FF800
07DF80001FF800
07DF80001FF800
07DF80001FF800
07DF80001FF800
07DF80001FF800
07DF80001FF800
07DF80001FF800
07DF80001FF800
07DF80001FF800
07DF80001FF800
07DF80001FF800
07DF00001FF800
078F00001E7800
000000000C3000
ENDCHAR
STARTCHAR 0037
ENCODING 55
SWIDTH 990 0
DWIDTH 55 0
BBX 54 41 0 -3
BITMAP
0001FFE0000000
000FFFFC000000
003FFFFF000000
007FC0FF800000
00FF807FC00000
01FF003FF00000
03FE001FF00000
07FE001FF80000
0FFE001FFC0000
1FFE001FFE0000
1FFE001FFE0000
3FFF003FFF0000
3FFF803FFF0000
3FFFC0FFFF8000
7E0FFFFC1F8000
7C03FFF00F8000
7801FFF0078000
7001FFE003C000
7000FFE003C000
F000FFC003C000
F000FFC003C000
F001FFE003C000
7001FFE003C000
7803FFF0078000
7C07FFF80F8000
7F0FE1FE3F8000
7FFF807FFF8000
3FFF003FFF0000
3FFF003FFF0000
1FFE001FFE0000
1FFE001FFE0000
0FFE001FFC0000
07FE001FFC0000
07FF001FFC0008
03FF003FFE007C
01FF807FFE01FC
00FFC0FFCF9FF8
003FFFFF0FFFF0
000FFFFE07FF80
0003FFF001FC00
00003F80000000
ENDCHAR
STARTCHAR 0038
ENCODING 56
SWIDTH 990 0
DWIDTH 55 0
BBX 43 57 6 -11
BITMAP
7FFFFFFFFF80
7FFFFFFFFFC0
FFFFFFFFFFC0
FFFFFFFFFFE0
F800000003E0
F800000003E0
F000000003E0
F000000003E0
F000000003E0
F000000003E0
F000000003E0
F000000003E0
F000000003E0
F800000003E0
F800000003E0
FFFFFFFFFFE0
FFFFFFFFFFE0
FFFFFFFFFFE0
FFFFFFFFFFE0
FC0FE0FE07E0
F80FC07C03E0
F80FC07C03E0
F80FC07C03E0
F80FC07C03E0
F80FC07C03E0
F80FC07C03E0
F80FC07E03E0
FFFFFFFFFFE0
FFFFFFFFFFE0
FFFFFFFFFFE0
FFFFFFFFFFE0
FFFFFFFFFFE0
F80FC07E03E0
F80FC07C03E0
F80FC07C03E0
F80FC07C03E0
F80FC07C03E0
F80FC07C03E0
F80FC07E03E0
FFFFFFFFFFE0
FFFFFFFFFFE0
FFFFFFFFFFE0
FFFFFFFFFFE0
FFFFFFFFFFE0
F80FC07E03E0
F80FC07C03E0
F80FC07C03E0
F80FC07C03E0
F80FC07C03E0
F80FC07C03E0
F80FC07C03E0
FFFFFFFFFFE0
FFFFFFFFFFE0
FFFFFFFFFFE0
FFFFFFFFFFC0
7FFFFFFFFFC0
3FFFFFFFFF80
ENDCHAR
STARTCHAR 0039
ENCODING 57
SWIDTH 990 0
DWIDTH 55 0
BBX 54 52 0 -8
BITMAP
20000000000000
78000000000000
FC000000000000
7E000000000000
3F000000000000
1F800000000000
0F800000000000
07C00000000000
03E0FFFFFFFFFC
01E0FFFFFFFFF8
01F0FFFFFFFFF8
00F0FFFFFFFFF0
00F0FFFFFFFFF0
00787FFFFFFFF0
00787FFFFFFFE0
007C7FFFFFFFE0
003C7FFFFFFFC0
003C7FFFFFFFC0
003C7FFFFFFF80
001E3FFFFFFF80
001E3FFFFFFF00
001E3FFFFFFF00
001E3FFFFFFE00
001E3FFFFFFE00
000F3FFFFFFC00
000F1FFFFFFC00
000F1FFFFFF800
000F0000000000
000F0000000000
000F0000000000
000F0000000000
00078000000000
00078000000000
00078000000000
0007FFFFFFFFC0
0007FFFFFFFFC0
0007FFFFFFFFC0
0003FFFFFFFF80
00000000000000
00000000000000
00000000000000
0003E000003E00
0007F80000FF00
000FF80000FF80
001FFC0001FFC0
001FFC0001FFC0
001FFC0001FFC0
001FFC0001FFC0
001FFC0001FFC0
000FF80000FF80
0007F80000FF00
0003E000003E00
ENDCHAR
STARTCHAR 003A
ENCODING 58
SWIDTH 990 0
DWIDTH 55 0
BBX 54 54 0 -10
BITMAP
00000000070000
000000007FF000
00000001FFFC00
00000007FFFF00
0000000FFFFF80
0000001FFFFFC0
0000003FFFFFE0
0000007FFF87F0
0000007FFF01F0
000000FFFE01F8
000000FFFE01F8
000000FFFE00F8
000001FFFE01FC
000001FFFF01FC
000001FFFF03FC
000001FFFFEFFC
000001FFFFFFFC
000001FFFFFFFC
000001FFFFFFFC
000001FFFFFFFC
000000FFFFFFF8
000000FFFFFFF8
000004FFFFFFF8
00000C7FFFFFF0
00001E7FFFFFF0
00003E3FFFFFE0
00007F1FFFFFC0
0000FF0FFFFF80
0001FF87FFFF00
0003FFC1FFFC00
0007FFF07FF000
000FFFF8070000
001FFFFE000000
003FFFFF800000
007FFFE0000000
00FFFFE0000000
01FFFFE0000000
03FFFFE0000000
07FFFE00000000
0FFFFE00000000
1FFFFE00000000
3FFF0000000000
3FFF0000000000
7FFF0000000000
7FFF0000000000
FFFF0000000000
FFFF0000000000
FFFF0000000000
7FF00000000000
7FF00000000000
7FF00000000000
3FF00000000000
1FF00000000000
07E00000000000
ENDCHAR
STARTCHAR 003B
ENCODING 59
SWIDTH 990 0
DWIDTH 55 0
BBX 54 54 0 -9
BITMAP
00000078000000
00000078000000
00000078000000
00000078000000
00000078000000
00000078000000
00000078000000
00000078000000
00000078000000
00000078000000
00000078000000
00000078000000
00000078000000
00000078000000
00000078000000
00000078000000
00000078000000
00000078000000
00000078000000
00000078000000
00000078000000
00000078000000
00000078000000
00000078000000
00000078000000
FFFFFFFFFFFFFC
FFFFFFFFFFFFFC
FFFFFFFFFFFFFC
FFFFFFFFFFFFFC
00000078000000
00000078000000
00000078000000
00000078000000
00000078000000
00000078000000
00000078000000
00000078000000
00000078000000
00000078000000
00000078000000
00000078000000
00000078000000
00000078000000
00000078000000
00000078000000
00000078000000
00000078000000
00000078000000
00000078000000
00000078000000
00000078000000
00000078000000
00000078000000
00000078000000
ENDCHAR
STARTCHAR 003C
ENCODING 60
SWIDTH 990 0
DWIDTH 55 0
BBX 54 44 0 -4
BITMAP
00000038000000
00000038000000
0000007C000000
0000007C000000
000000FE000000
000001FE000000
000001FF000000
000003FF800000
000003FF800000
000007EFC00000
00000FC7C00000
00000F87E00000
00001F83F00000
00001F03F00000
00003F01F80000
00007E00F80000
00007C00FC0000
0000FC007E0000
0000F8007E0000
0001F8003F0000
0003F0001F0000
0003E0001F8000
0007E0000FC000
0007C0000FC000
000FC00007E000
001F800003E000
001F000003F000
003F000001F000
003E000001F800
007E000000FC00
00FC0000007C00
00FC0000007E00
01F80000003E00
01F00000003F00
03F00000001F80
07E00000000F80
07E00000000FC0
0FC000000007C0
0F8000000007E0
1F8000000003F0
3F0000000001F0
3F0000000001F8
7E0000000000F8
FC0000000000FC
ENDCHAR
STARTCHAR 003D
ENCODING 61
SWIDTH 990 0
DWIDTH 55 0
BBX 54 54 0 -9
BITMAP
000000FE000000
00001FFFE00000
00007FFFFC0000
0001F8003F0000
0007C00007C000
001F000001E000
003C0000007800
00700000003C00
00E00000001E00
01C00000000700
03800000000700
070FFFFF800380
0601FE3FE001C0
0E00F807F000C0
0C00F803F800E0
1C00F801F80070
1800F800FC0070
3800F800FC0030
3000F800FC0038
7000F800FC0018
7000F800FC0018
6000F800FC001C
6000F801F8001C
6000F801F8000C
E000F803F0000C
E000F80FE0000C
E000FFFF80000C
E000FFFC00000C
E000F87E00000C
E000F87E00000C
6000F83F00000C
6000F81F80001C
6000F81F80001C
7000F80FC00018
7000F807E00018
3000F803E00038
3800F803F00038
3800F801F80030
1800F800FC0070
1C00F8007C0060
0E00FC007E00E0
0E01FC003F01C0
070FFFC01FC1C0
038FFFC01FC380
01C00000000700
01E00000000E00
00F00000001C00
00380000007800
001E000001F000
000F800007C000
0003F0001F8000
0000FF01FE0000
00003FFFF00000
000003FF800000
ENDCHAR
STARTCHAR 003E
ENCODING 62
SWIDTH 990 0
DWIDTH 55 0
BBX 54 54 0 -9
BITMAP
000000FE000000
00001FFFE00000
00007FFFFC0000
0001F8003F0000
0007C00007C000
001F000001E000
003C0000007800
00780000003C00
00E00000001E00
01C00000000F00
038001FF818700
07000FFFFB8380
07003F007F81C0
0E007C001F80C0
0C00F0000F80E0
1C01F000078070
1803E000038070
3807C000018030
300FC000018038
700F8000008018
701F8000008018
601F800000001C
601F800000001C
603F000000000C
E03F000000000C
E03F000000000C
E03F000000000C
E03F000000000C
E03F000000000C
E03F000000000C
603F000000000C
603F800000001C
601F800000001C
701F8000000018
701F8000000018
300FC000000038
3807C00000C038
3807E000018030
1803F000038070
1C01F800070060
0E00FE001C00E0
0E003F807801C0
07001FFFE00180
038003FF800380
01C00000000700
01E00000000E00
00F00000001C00
00780000007800
001E000001F000
000F800007C000
0003F0001F8000
0000FF01FE0000
00003FFFF00000
000003FF800000
ENDCHAR
STARTCHAR 003F
ENCODING 63
SWIDTH 990 0
DWIDTH 55 0
BBX 54 54 0 -9
BITMAP
00000074000000
00000FFFE00000
00007FFFFC0000
0001FFFFFF0000
0007FFFFFFC000
000FFFFFFFE000
003FFFC7FFF000
007FF8003FF800
00FFC00007FE00
01FF000003FE00
03FE000000FF00
03FC0000007F80
07F80000003FC0
0FF00000001FC0
0FE00000000FE0
1FC000000007F0
1F8000000007F0
3F8000000003F0
3F0000000003F8
3F0000000001F8
7E0000000001F8
7E0000000001FC
7E0000000000FC
7E0000000000FC
7E0000000000FC
7E0000000000FC
FC0000000000FC
FC0000000000FC
7C0000000000FC
7E0000000000FC
7E0000000000FC
7E0000000000FC
7E0000000000FC
7E0000000001FC
7F0000000001F8
3F0000000001F8
3F8000000003F8
3F8000000003F0
1FC000000007F0
1FC00000000FE0
0FE00000001FE0
0FF00000001FC0
07F80000003FC0
03FC000000FF80
01FF000001FF00
00FF800003FE00
007FE0000FFC00
003FFC007FF800
001FFFFFFFF000
000FFFFFFFE000
0003FFFFFF8000
0000FFFFFE0000
00003FFFF80000
000007FF800000
ENDCHAR
STARTCHAR 0040
ENCODING 64
SWIDTH 990 0
DWIDTH 55 0
BBX 54 54 0 -9
BITMAP
00000010000000
00000010000000
00000030000000
00000038000000
00000078000000
0000007C000000
000000FC000000
000000FE000000
000001FE000000
000001FF000000
000003FF000000
000003FF800000
000007FF800000
000007FFC00000
00000FFFC00000
00000FFFE00000
00001FFFE00000
00001FFFF00000
00003FFFF00000
00003FFFF80000
00007FFFF80000
00007FFFFC0000
0000FFFFFC0000
0000FFFFFE0000
0001FFFFFE0000
0001FFFFFF0000
0003FFFFFF0000
0003FFFFFF8000
0007FFFFFF8000
0007FFFFFFC000
000FFFFFFFC000
000FFFFFFFE000
001FFFFFFFE000
001FFFFFFFF000
003FFFFFFFF000
003FFFFFFFF800
007FFFFFFFF800
007FFFFFFFFC00
00FFFFFFFFFC00
00FFFFFFFFFE00
01FFFFFFFFFE00
01FFFFFFFFFF00
03FFFFFFFFFF00
03FFFFFFFFFF80
07FFFFFFFFFF80
07FFFFFFFFFFC0
0FFFFFFFFFFFC0
0FFFFFFFFFFFE0
1FFFFFFFFFFFE0
1FFFFFFFFFFFF0
3FFFFFFFFFFFF0
3FFFFFFFFFFFF8
7FFFFFFFFFFFF8
FFFFFFFFFFFFFC
ENDCHAR
STARTCHAR 0041
ENCODING 65
SWIDTH 990 0
DWIDTH 55 0
BBX 53 52 1 -8
BITMAP
80002000000000
80001000000000
C0001C00000000
F0001E00000000
F8001F00000000
FC001FC0000000
FF001FE0000000
FF801FF0000000
FFC01FFC000000
FFF01FFE000000
FFF81FFF000000
FFFC1FFFC00000
FFFF1FFFE00000
FFFF8FFFF00000
FFFFC7FFFC0000
FFFFF3FFFE0000
FFFFF8FFFF0000
FFFFFC7FFFC000
FFFFFF3FFFE000
FFFFFF8FFFF000
FFFFFFC7FFFC00
FFFFFFF3FFFE00
FFFFFFF8FFFF00
FFFFFFFC7FFFC0
FFFFFFFF3FFFE0
FFFFFFFF8FFFF0
FFFFFFFFCFFFF8
FFFFFFFF1FFFE0
FFFFFFFE7FFFC0
FFFFFFF8FFFF80
FFFFFFF1FFFE00
FFFFFFE7FFFC00
FFFFFF8FFFF800
FFFFFF1FFFE000
FFFFFE7FFFC000
FFFFF8FFFF8000
FFFFF1FFFE0000
FFFFE7FFFC0000
FFFF8FFFF80000
FFFF1FFFE00000
FFFE1FFFC00000
FFF81FFF800000
FFF01FFE000000
FFE01FFC000000
FF801FF8000000
FF001FE0000000
FE001FC0000000
F8001F80000000
F0001E00000000
E0001C00000000
80001800000000
80001000000000
ENDCHAR
STARTCHAR 0042
ENCODING 66
SWIDTH 990 0
DWIDTH 55 0
BBX 47 57 4 -11
BITMAP
800000001FFE
E00000001FFE
F80000001FFE
FC0000001FFE
FF0000001FFE
FFC000001FFE
FFE000001FFE
FFF800001FFE
FFFE00001FFE
FFFF00001FFE
FFFFC0001FFE
FFFFE0001FFE
FFFFF8001FFE
FFFFFE001FFE
FFFFFF001FFE
FFFFFFC01FFE
FFFFFFF01FFE
FFFFFFF81FFE
FFFFFFFE1FFE
FFFFFFFF9FFE
FFFFFFFFDFFE
FFFFFFFFFFFE
FFFFFFFFFFFE
FFFFFFFFFFFE
FFFFFFFFFFFE
FFFFFFFFFFFE
FFFFFFFFFFFE
FFFFFFFFFFFE
FFFFFFFFFFFE
FFFFFFFFFFFE
FFFFFFFFFFFE
FFFFFFFFFFFE
FFFFFFFFFFFE
FFFFFFFFFFFE
FFFFFFFFFFFE
FFFFFFFFFFFE
FFFFFFFF9FFE
FFFFFFFF1FFE
FFFFFFFC1FFE
FFFFFFF01FFE
FFFFFFE01FFE
FFFFFF801FFE
FFFFFE001FFE
FFFFFC001FFE
FFFFF0001FFE
FFFFE0001FFE
FFFF80001FFE
FFFE00001FFE
FFFC00001FFE
FFF000001FFE
FFC000001FFE
FF8000001FFE
FE0000001FFE
F80000001FFE
F00000001FFE
C00000001FFE
800000001FFE
ENDCHAR
STARTCHAR 0043
ENCODING 67
SWIDTH 990 0
DWIDTH 55 0
BBX 41 57 7 -11
BITMAP
FFFF81FFFF80
FFFF81FFFF80
FFFF81FFFF80
FFFF81FFFF80
FFFF81FFFF80
FFFF81FFFF80
FFFF81FFFF80
FFFF81FFFF80
FFFF81FFFF80
FFFF81FFFF80
FFFF81FFFF80
FFFF81FFFF80
FFFF81FFFF80
FFFF81FFFF80
FFFF81FFFF80
FFFF81FFFF80
FFFF81FFFF80
FFFF81FFFF80
FFFF81FFFF80
FFFF81FFFF80
FFFF81FFFF80
FFFF81FFFF80
FFFF81FFFF80
FFFF81FFFF80
FFFF81FFFF80
FFFF81FFFF80
FFFF81FFFF80
FFFF81FFFF80
FFFF81FFFF80
FFFF81FFFF80
FFFF81FFFF80
FFFF81FFFF80
FFFF81FFFF80
FFFF81FFFF80
FFFF81FFFF80
FFFF81FFFF80
FFFF81FFFF80
FFFF81FFFF80
FFFF81FFFF80
FFFF81FFFF80
FFFF81FFFF80
FFFF81FFFF80
FFFF81FFFF80
FFFF81FFFF80
FFFF81FFFF80
FFFF81FFFF80
FFFF81FFFF80
FFFF81FFFF80
FFFF81FFFF80
FFFF81FFFF80
FFFF81FFFF80
FFFF81FFFF80
FFFF81FFFF80
FFFF81FFFF80
FFFF81FFFF80
FFFF81FFFF80
FFFF81FFFF80
ENDCHAR
STARTCHAR 0044
ENCODING 68
SWIDTH 990 0
DWIDTH 55 0
BBX 47 57 4 -11
BITMAP
800000000000
E00000000000
F00000000000
FC0000000000
FF0000000000
FF8000000000
FFE000000000
FFF800000000
FFFC00000000
FFFF00000000
FFFFC0000000
FFFFE0000000
FFFFF8000000
FFFFFE000000
FFFFFF000000
FFFFFFC00000
FFFFFFE00000
FFFFFFF80000
FFFFFFFE0000
FFFFFFFF0000
FFFFFFFFC000
FFFFFFFFF000
FFFFFFFFF800
FFFFFFFFFE00
FFFFFFFFFF80
FFFFFFFFFFC0
FFFFFFFFFFF0
FFFFFFFFFFF8
FFFFFFFFFFFE
FFFFFFFFFFF8
FFFFFFFFFFE0
FFFFFFFFFF80
FFFFFFFFFF00
FFFFFFFFFC00
FFFFFFFFF800
FFFFFFFFE000
FFFFFFFF8000
FFFFFFFF0000
FFFFFFFC0000
FFFFFFF00000
FFFFFFE00000
FFFFFF800000
FFFFFE000000
FFFFFC000000
FFFFF0000000
FFFFE0000000
FFFF80000000
FFFE00000000
FFFC00000000
FFF000000000
FFC000000000
FF8000000000
FE0000000000
F80000000000
F00000000000
C00000000000
800000000000
ENDCHAR
STARTCHAR 0045
ENCODING 69
SWIDTH 990 0
DWIDTH 55 0
BBX 53 54 1 -9
BITMAP
00000070000000
00001FFFC00000
0000FFFFF80000
0003FFFFFE0000
000FFFFFFF8000
001FFFFFFFC000
007FFFFFFFE000
00FFFFFFFFF800
01FFFFFFFFFC00
03FFFFFFFFFC00
07FFFFFFFFFE00
07FFFFFFFFFF00
0FFFFFFFFFFF80
1FFFFFFFFFFF80
1FFFFFFFFFFFC0
3FFFFF8FFFFFE0
3FFFF801FFFFE0
7FFFF0007FFFE0
7FFFC0003FFFF0
7FFF80001FFFF0
FFFF80000FFFF0
FFFF000007FFF8
FFFE000007FFF8
FFFE000003FFF8
FFFE000003FFF8
FFFE000003FFF8
FFFE000003FFF8
FFFE000003FFF8
FFFE000003FFF8
FFFE000003FFF8
FFFE000003FFF8
FFFE000007FFF8
FFFF000007FFF8
FFFF00000FFFF0
FFFF80000FFFF0
7FFFC0001FFFF0
7FFFE0003FFFF0
3FFFF000FFFFE0
3FFFFE03FFFFE0
3FFFFFFFFFFFC0
1FFFFFFFFFFFC0
0FFFFFFFFFFF80
0FFFFFFFFFFF00
07FFFFFFFFFF00
03FFFFFFFFFE00
01FFFFFFFFFC00
00FFFFFFFFF800
007FFFFFFFF000
003FFFFFFFE000
001FFFFFFF8000
0007FFFFFF0000
0001FFFFFC0000
00007FFFE00000
000007FF000000
ENDCHAR
STARTCHAR 0046
ENCODING 70
SWIDTH 990 0
DWIDTH 55 0
BBX 53 53 1 -9
BITMAP
FFFFFFFFFFFFF8
FFFFFFFFFFFFF8
FFFFFFFFFFFFF8
FFFFFFFFFFFFF8
FFFFFFFFFFFFF8
FFFFFFFFFFFFF8
FFFFFFFFFFFFF8
FFFFFFFFFFFFF8
FFFFFFFFFFFFF8
FFFFFFFFFFFFF8
FFFFFFFFFFFFF8
FFFFFFFFFFFFF8
FFFFFFFFFFFFF8
FFFFFFFFFFFFF8
FFFFFFFFFFFFF8
FFFFFFFFFFFFF8
FFFFFFFFFFFFF8
FFFFFFFFFFFFF8
FFFFFFFFFFFFF8
FFFFFFFFFFFFF8
FFFFFFFFFFFFF8
FFFFFFFFFFFFF8
FFFFFFFFFFFFF8
FFFFFFFFFFFFF8
FFFFFFFFFFFFF8
FFFFFFFFFFFFF8
FFFFFFFFFFFFF8
FFFFFFFFFFFFF8
FFFFFFFFFFFFF8
FFFFFFFFFFFFF8
FFFFFFFFFFFFF8
FFFFFFFFFFFFF8
FFFFFFFFFFFFF8
FFFFFFFFFFFFF8
FFFFFFFFFFFFF8
FFFFFFFFFFFFF8
FFFFFFFFFFFFF8
FFFFFFFFFFFFF8
FFFFFFFFFFFFF8
FFFFFFFFFFFFF8
FFFFFFFFFFFFF8
FFFFFFFFFFFFF8
FFFFFFFFFFFFF8
FFFFFFFFFFFFF8
FFFFFFFFFFFFF8
FFFFFFFFFFFFF8
FFFFFFFFFFFFF8
FFFFFFFFFFFFF8
FFFFFFFFFFFFF8
FFFFFFFFFFFFF8
FFFFFFFFFFFFF8
FFFFFFFFFFFFF8
FFFFFFFFFFFFF8
ENDCHAR
STARTCHAR 0047
ENCODING 71
SWIDTH 990 0
DWIDTH 55 0
BBX 47 57 4 -11
BITMAP
FFF000000006
FFF00000000E
FFF00000003E
FFF0000000FE
FFF0000001FE
FFF0000007FE
FFF000001FFE
FFF000003FFE
FFF00000FFFE
FFF00001FFFE
FFF00007FFFE
FFF0001FFFFE
FFF0003FFFFE
FFF000FFFFFE
FFF003FFFFFE
FFF007FFFFFE
FFF01FFFFFFE
FFF07FFFFFFE
FFF0FFFFFFFE
FFF3FFFFFFFE
FFF7FFFFFFFE
FFFFFFFFFFFE
FFFFFFFFFFFE
FFFFFFFFFFFE
FFFFFFFFFFFE
FFFFFFFFFFFE
FFFFFFFFFFFE
FFFFFFFFFFFE
FFFFFFFFFFFE
FFFFFFFFFFFE
FFFFFFFFFFFE
FFFFFFFFFFFE
FFFFFFFFFFFE
FFFFFFFFFFFE
FFFFFFFFFFFE
FFFFFFFFFFFE
FFF7FFFFFFFE
FFF1FFFFFFFE
FFF07FFFFFFE
FFF03FFFFFFE
FFF00FFFFFFE
FFF003FFFFFE
FFF001FFFFFE
FFF0007FFFFE
FFF0003FFFFE
FFF0000FFFFE
FFF00003FFFE
FFF00001FFFE
FFF000007FFE
FFF000001FFE
FFF000000FFE
FFF0000003FE
FFF0000000FE
FFF00000007E
FFF00000001E
FFF00000000E
FFF000000002
ENDCHAR
STARTCHAR 0048
ENCODING 72
SWIDTH 990 0
DWIDTH 55 0
BBX 54 52 0 -8
BITMAP
00000000200004
0000000060000C
00000000E0001C
00000001E0003C
00000007E0007C
0000000FE001FC
0000001FE003FC
0000007FE007FC
000000FFE01FFC
000001FFE03FFC
000007FFE07FFC
00000FFFE1FFFC
00001FFFE3FFFC
00007FFFC7FFFC
0000FFFF9FFFFC
0001FFFE3FFFFC
0007FFFC7FFFFC
000FFFF9FFFFFC
001FFFE3FFFFFC
007FFFC7FFFFFC
00FFFF9FFFFFFC
01FFFE3FFFFFFC
07FFFC7FFFFFFC
0FFFF9FFFFFFFC
1FFFE3FFFFFFFC
7FFFC7FFFFFFFC
FFFFCFFFFFFFFC
3FFFE7FFFFFFFC
0FFFF1FFFFFFFC
07FFFCFFFFFFFC
03FFFE7FFFFFFC
00FFFF1FFFFFFC
007FFFCFFFFFFC
003FFFE7FFFFFC
000FFFF1FFFFFC
0007FFFCFFFFFC
0003FFFE7FFFFC
0000FFFF1FFFFC
00007FFF8FFFFC
00003FFFE7FFFC
00001FFFE1FFFC
000007FFE0FFFC
000003FFE07FFC
000001FFE01FFC
0000007FE00FFC
0000003FE007FC
0000000FE001FC
00000007E000FC
00000003E0007C
00000001E0001C
0000000060000C
00000000200004
ENDCHAR
STARTCHAR 0049
ENCODING 73
SWIDTH 990 0
DWIDTH 55 0
BBX 53 54 1 -9
BITMAP
F8400000000000
F8600000000000
F8780000000000
F87C0000000000
F87F0000000000
F87F0000000000
F87F0000000000
F87F0000000000
F87F0600000000
F87F0700000000
F87F07C0000000
F87F07E0000000
F87F07F8000000
F87F07FE000000
F87F07FF000000
F87F07FFC00000
F87F07FFF00000
F87F07FFF80000
F87F07FFFE0000
F87F07FFFF8000
F87F07FFFFC000
F87F07FFFFF000
F87F07FFFFF800
F87F07FFFFFE00
F87F07FFFFFF80
F87F07FFFFFFC0
F87F07FFFFFFF0
F87F07FFFFFFF8
F87F07FFFFFFE0
F87F07FFFFFF80
F87F07FFFFFF00
F87F07FFFFFC00
F87F07FFFFF800
F87F07FFFFE000
F87F07FFFF8000
F87F07FFFF0000
F87F07FFFC0000
F87F07FFF00000
F87F07FFE00000
F87F07FF800000
F87F07FE000000
F87F07FC000000
F87F07F0000000
F87F07E0000000
F87F0780000000
F87F0600000000
F87F0400000000
F87F0000000000
F87F0000000000
F87F0000000000
F87E0000000000
F8780000000000
F8700000000000
F8400000000000
ENDCHAR
STARTCHAR 004A
ENCODING 74
SWIDTH 990 0
DWIDTH 55 0
BBX 54 53 0 -9
BITMAP
00000010000000
00000038000000
00000078000000
0000007C000000
000000FE000000
000001FF000000
000003FF000000
000003FF800000
000007FFC00000
00000FFFE00000
00001FFFE00000
00001FFFF00000
00003FFFF80000
00007FFFFC0000
0000FFFFFC0000
0000FFFFFE0000
0001FFFFFF0000
0003FFFFFF8000
0007FFFFFF8000
0007FFFFFFC000
000FFFFFFFE000
001FFFFFFFF000
003FFFFFFFF000
007FFFFFFFF800
007FFFFFFFFC00
00FFFFFFFFFE00
01FFFFFFFFFE00
03FFFFFFFFFF00
03FFFFFFFFFF80
07FFFFFFFFFFC0
0FFFFFFFFFFFC0
1FFFFFFFFFFFE0
1FFFFFFFFFFFF0
3FFFFFFFFFFFF8
7FFFFFFFFFFFFC
00000000000000
00000000000000
00000000000000
00000000000000
FFFFFFFFFFFFFC
FFFFFFFFFFFFFC
FFFFFFFFFFFFFC
FFFFFFFFFFFFFC
FFFFFFFFFFFFFC
FFFFFFFFFFFFFC
FFFFFFFFFFFFFC
FFFFFFFFFFFFFC
FFFFFFFFFFFFFC
FFFFFFFFFFFFFC
FFFFFFFFFFFFFC
FFFFFFFFFFFFFC
FFFFFFFFFFFFFC
FFFFFFFFFFFFFC
ENDCHAR
STARTCHAR 004B
ENCODING 75
SWIDTH 990 0
DWIDTH 55 0
BBX 53 55 1 -10
BITMAP
00000000000E00
00000000003E00
00000000007E00
0000000000FE00
0000000000FE00
0000000001FE00
0000000003FE00
0000000003FC00
0000000007FC00
0000000007F800
000000000FF000
000000000FF000
000000001FE000
000000001FE000
000000003FC000
000000007FC000
000000007F8000
1FFFFFFFFF0000
1FFFFFFFFF0000
3FFFFFFFFE0000
7FFFFFFFFF0000
7FFFFFFFFF0000
FFFFFFFFFF8000
7FFFFFFFFF8000
03FFFFFFFFC000
001FFFFFFFC000
00007FFFFFE000
000003FFFFF000
0000007FFFF000
0000007FFFF800
000000FFFFF800
000000FFFFFC00
000001FE7FFC00
000001FE3FFE00
000003FC1FFF00
000003F80FFF00
000007F80FFF80
00000FF007FF80
00000FE003FFC0
00001FE001FFC0
00003FC000FFE0
000FFF80007FF0
001FFF80003FF0
003FFF00001FF8
007FFF80001FF8
003FFF80000FF0
0003FFC00007F0
00001FC00003E0
00001FC00001E0
00000FE00000C0
000007E0000040
000003C0000000
00000180000000
00000180000000
00000080000000
ENDCHAR
STARTCHAR 004C
ENCODING 76
SWIDTH 990 0
DWIDTH 55 0
BBX 46 57 4 -11
BITMAP
000000000800
000000000C00
000000000C00
000000001E00
000000001E00
000000003E00
0003FFFC3F00
001FFFFFFF00
003FFFFFFF80
00FFFFFFFF80
01FFFFFFFF80
03FFFFFFFFC0
07FFFFFFFFC0
0FF807FFFFE0
1FC0007FFFE0
1E00001FFFE0
3800001FFFF0
4000001FFFF0
0000003FFFF8
0000003FFFF8
0000007FFFFC
000000FFFFFC
000000FFFFF8
000001FFFC00
000003FC0000
000004000000
000000000000
000000000000
000000000000
000000000000
000000000000
000007800000
0007FF000000
07FFFE000000
FFFFFE000000
7FFFFC000000
7FFFF8000000
3FFFF8000000
3FFFF0000004
1FFFE0000018
1FFFE0000070
1FFFF80001F0
0FFFFE000FE0
0FFFFFFFFFC0
07FFFFFFFF80
07FFFFFFFF00
07FFFFFFFE00
03FFFFFFFC00
03FFFFFFF000
01FBFFFFC000
01F00FFE0000
01F000000000
00F000000000
00E000000000
006000000000
004000000000
004000000000
ENDCHAR
STARTCHAR 004D
ENCODING 77
SWIDTH 990 0
DWIDTH 55 0
BBX 54 46 0 -5
BITMAP
00000FE0000000
0000FFFE000000
0007FFFF800000
001FFFFFE00000
003FFFFFF80000
007FFFFFFC0000
00FFFFFFFE0000
01FFF01FFF0000
03FF8003FF8000
07FE0000FFC000
0FF800007FC000
0FF000003FE000
1FE000001FF000
3FC000000FF000
3FC0000007F800
3F80000007F800
7F80000003F800
7F00000003FC00
7F00000001FC00
7F000001FFFFFC
7E000000FFFFF8
FE0000007FFFF0
FE0000003FFFE0
FE0000001FFFC0
FE0000000FFF80
FE0000000FFF00
7F00000007FF00
7F00000003FE00
7F00000001FC00
7F80000000F800
3F800000007000
3FC00000006000
3FC00000002000
1FE00000000000
1FF00000000000
0FF80000000000
07FC0000800000
07FF0003C00000
03FFE00FC00000
01FFFFFFE00000
00FFFFFFE00000
003FFFFFF00000
001FFFFFF00000
0007FFFFC00000
0001FFFF000000
00001FF0000000
ENDCHAR
STARTCHAR 004E
ENCODING 78
SWIDTH 990 0
DWIDTH 55 0
BBX 54 38 0 -1
BITMAP
000000000007C0
00000000000FE0
00000000001FF0
00000000003FF8
00000000007FFC
0000000000FFFC
0000000001FFFC
0000000003FFFC
0000000007FFF8
000000000FFFF0
000000001FFFE0
078000003FFFC0
0FC000007FFF80
1FE00000FFFF00
3FF00001FFFE00
7FF80003FFFC00
7FFC0007FFF800
FFFE000FFFF000
7FFF001FFFE000
7FFF803FFFC000
3FFFC07FFF8000
1FFFE0FFFF0000
0FFFF1FFFE0000
07FFFBFFFC0000
03FFFFFFF80000
01FFFFFFF00000
00FFFFFFE00000
007FFFFFC00000
003FFFFF800000
001FFFFF000000
000FFFFE000000
0007FFFC000000
0003FFF8000000
0001FFF0000000
0000FFE0000000
00007FC0000000
00003F80000000
00001F00000000
ENDCHAR
STARTCHAR 004F
ENCODING 79
SWIDTH 990 0
DWIDTH 55 0
BBX 53 54 1 -9
BITMAP
0C000000000000
7FFE0000000000
FFFFE000000000
FFFFFC00000000
FFFFFF00000000
FFFFFFC0000000
FFFFFFF0000000
FFFFFFFC000000
7FFFFFFE000000
3FFFFFFF800000
07FFFFFFC00000
0003FFFFE00000
00007FFFF80000
00000FFFFC0000
000003FFFE0000
000000FFFF0000
1F80007FFF8000
7FFC001FFFC000
FFFF800FFFC000
FFFFE007FFE000
FFFFF803FFF000
FFFFFE00FFF800
FFFFFF007FF800
FFFFFF807FFC00
7FFFFFC03FFE00
3FFFFFF01FFE00
007FFFF80FFF00
000FFFF807FF00
0001FFFC07FF80
0000FFFE03FF80
00003FFF03FF80
00001FFF01FFC0
00000FFF81FFC0
000007FFC0FFE0
000003FFC0FFE0
000001FFE07FE0
07F000FFE07FE0
0FFC00FFE07FF0
3FFE007FF03FF0
7FFF007FF03FF0
7FFF003FF03FF0
FFFF803FF83FF8
FFFF803FF81FF8
FFFF801FF81FF8
FFFFC01FF81FF8
FFFFC01FF81FF8
FFFF801FF81FF8
FFFF801FF81FF8
FFFF801FF81FF8
7FFF001FF81FF8
7FFF000FF81FF8
3FFE000FF80FF0
0FFC0007F007F0
03F00003E003C0
ENDCHAR
STARTCHAR 0050
ENCODING 80
SWIDTH 990 0
DWIDTH 55 0
BBX 51 57 2 -11
BITMAP
00000FFE000000
00007FFFC00000
0001FFFFF00000
0007FFFFF80000
000FFFFFFC0000
001FFFFFFF0000
003FFFFFFF8000
007FFFFFFF8000
00FFFC07FFC000
00FFF001FFE000
01FFC0007FE000
01FF80003FF000
03FF00001FF000
03FE00001FF800
07FC00000FF800
07FC000007F800
07FC000007FC00
07F8000007FC00
07F8000007FC00
07F8000003FC00
07F8000003FC00
07F8000003FC00
07F8000003FC00
07F8000003FC00
07F8000003FC00
FFFFFFFFFFFFE0
FFFFFFFFFFFFE0
FFFFFFFFFFFFE0
FFFFFFFFFFFFE0
FFFFFFFFFFFFE0
FFFFFFFFFFFFE0
FFFFFFFFFFFFE0
FFFFFF3FFFFFE0
FFFFFE0FFFFFE0
FFFFFC07FFFFE0
FFFFF807FFFFE0
FFFFF807FFFFE0
FFFFFC07FFFFE0
FFFFFC0FFFFFE0
FFFFFE0FFFFFE0
FFFFFE1FFFFFE0
FFFFFE1FFFFFE0
FFFFFE0FFFFFE0
FFFFFE0FFFFFE0
FFFFFE0FFFFFE0
FFFFFE0FFFFFE0
FFFFFE0FFFFFE0
FFFFFE0FFFFFE0
FFFFFE0FFFFFE0
FFFFFFFFFFFFE0
FFFFFFFFFFFFE0
FFFFFFFFFFFFE0
FFFFFFFFFFFFE0
FFFFFFFFFFFFE0
FFFFFFFFFFFFE0
FFFFFFFFFFFFE0
FFFFFFFFFFFFE0
ENDCHAR
STARTCHAR 0051
ENCODING 81
SWIDTH 990 0
DWIDTH 55 0
BBX 54 54 0 -9
BITMAP
001FFFFFFFE000
001FFFFFFFE000
001FFFFFFFE000
001FFFFFFFE000
001FFFFFFFE000
001FFFFFFFE000
001FFFFFFFE000
001FFFFFFFE000
001FFFFFFFE000
001FFFFFFFE000
001FFFFFFFE000
001FFFFFFFE000
001FFFFFFFE000
001FFFFFFFE000
001FFFFFFFE000
001FFFFFFFE000
001FFFFFFFE000
001FFFFFFFE000
001FFFFFFFE000
001FFFFFFFE000
00000018000000
00000018000000
00000018000000
00000018000000
00000018000000
00000018000000
00000018000000
00000018000000
001FFFFFFFF000
001FFFFFFFF000
00180000003000
00180000003000
00180000003000
00180000003000
00180000003000
FFFFFE01FFFFFC
FFFFFE01FFFFFC
FFFFFE01FFFFFC
FFFFFE01FFFFFC
FFFFFE01FFFFFC
FFFFFE01FFFFFC
FFFFFE01FFFFFC
FFFFFE01FFFFFC
FFFFFE01FFFFFC
FFFFFE01FFFFFC
FFFFFE01FFFFFC
FFFFFE01FFFFFC
FFFFFE01FFFFFC
FFFFFE01FFFFFC
FFFFFE01FFFFFC
FFFFFE01FFFFFC
FFFFFE01FFFFFC
FFFFFE01FFFFFC
FFFFFE01FFFFFC
ENDCHAR
STARTCHAR 0052
ENCODING 82
SWIDTH 990 0
DWIDTH 55 0
BBX 53 32 1 2
BITMAP
00000C00000000
00000E00000000
00000F80000000
00000FC0000000
000007E0000000
000003F8000000
007FFFFC3FF000
03FFFFFE3FFC00
07FFFFFF3FFF00
0FFFFFFF3FFF80
1FFFFFFF3FFFC0
3FFFFFFE3FFFE0
7FFFFFF83FFFE0
7F8007F0001FF0
FF000FE00007F0
FE000F800007F8
FE000F000003F8
FC000E000003F8
FC0000000003F8
FC0000000001F8
FC0000000003F8
FE0000000003F8
FE0000000003F8
FF0000000007F0
7F800000001FF0
7FF8000000FFF0
3FFFFFFFFFFFE0
1FFFFFFFFFFFC0
0FFFFFFFFFFF80
07FFFFFFFFFF00
03FFFFFFFFFE00
00FFFFFFFFF000
ENDCHAR
STARTCHAR 0053
ENCODING 83
SWIDTH 990 0
DWIDTH 55 0
BBX 54 45 0 -5
BITMAP
000000001E0000
000000003F0000
000000007F8000
00000000FFC000
00000001FFE000
00000003FFF000
00000007FFF800
0000000FFFFC00
7FFFFE1FFFFE00
FFFFFF3FFFFF00
FFFFFE7FFFFF80
FFFFFCFFFFFFC0
FFFFF9FFFFFFE0
FFFFF3FFFFFFF0
FFFFE7FFFFFFF8
FFFFEFFF7FBFFC
FFFFEFFC7F8FFC
FFC00FF07F83FC
FF8007C07F80F8
FF1FF21F7F9E10
FF3FF8FF7F9FC4
FF3FFFFF7F9FFC
FE7FFFFF7F9FFC
FE7FFFFF7F9FFC
FE7FFFFF7F9FF8
FC7FFFFF7F9FF8
FCFFFFFF7F9FF8
FCFFFFFF7F9FF0
FCFFFFFF7F9FF0
F9FFFFFF7F9FF0
F9FFFFFF7F9FF0
F9FFFFFF7F9FE0
F1FFFFFF7F9FE0
F3FFFFFF7F9FE0
F3FFFFFF7F9FC0
F3FFFFFF3F3FC0
E7FFFFFF807FC0
E7FFFFFFFFFFC0
E7FFFFFFFFFF80
C7FFFFFFFFFF80
4FFFFFFFFFFF80
0FFFFFFFFFFF00
0FFFFFFFFFFF00
0FFFFFFFFFFF00
07FFFFFFFFFC00
ENDCHAR
STARTCHAR 0054
ENCODING 84
SWIDTH 990 0
DWIDTH 55 0
BBX 54 54 0 -9
BITMAP
0000007C000000
00001FFFE00000
00007FFFFC0000
0003FFFFFF0000
0007FFFFFFC000
001FFFFFFFE000
003FFFFFFFF000
007FFFFFFFFC00
00FFFF83FFFE00
01FFF8003FFE00
03FFE0000FFF00
07FF800003FF80
07FF000001FFC0
0FFF800000FFC0
0FFFC000007FE0
1FFFE000003FE0
1FF7F000001FF0
3FE3F800001FF0
3FE1FC00000FF8
3FC0FE00000FF8
7FC07F000007F8
7F803F800007F8
7F801FC00007FC
7F800FE00003FC
7F8007F00003FC
FF0003F80003FC
FF0001FC0003FC
FF0000FE0003FC
FF00007F0003FC
FF80003F8003FC
7F80001FC003FC
7F80000FE003FC
7F800007F007FC
7F800003F807F8
7FC00001FC07F8
3FC00000FE0FF8
3FE000007F0FF0
3FE000003F9FF0
1FF000001FFFF0
1FF800000FFFE0
0FFC000007FFE0
0FFE000003FFC0
07FF000003FF80
03FFC00007FF80
01FFF0001FFF00
00FFFE00FFFE00
007FFFFFFFFC00
003FFFFFFFF800
001FFFFFFFF000
000FFFFFFFC000
0003FFFFFF8000
0000FFFFFE0000
00003FFFF00000
000003FF800000
ENDCHAR
STARTCHAR 0055
ENCODING 85
SWIDTH 990 0
DWIDTH 55 0
BBX 54 48 0 -6
BITMAP
00000018000000
0000003C000000
0000007C000000
000000FC000000
000000FC000000
000001FC000000
000003FC000000
000007FC000000
00000FFC000000
00001FFC000000
00003FFC000000
00007FFC000000
0000FFFC000000
0001FFFC000000
7FFFFFFC000000
FFFFFFFC000000
FFFFFFFC000000
FFFFFFFC000000
FFFFFFFC000000
FFFFFFFC000000
FFFFFFFC000000
FFFFFFFC1FFFFC
FFFFFFFC1FFFFC
FFFFFFFC1FFFFC
FFFFFFFC1FFFFC
FFFFFFFC1FFFFC
FFFFFFFC1FFFFC
FFFFFFFC000000
FFFFFFFC000000
FFFFFFFC000000
FFFFFFFC000000
FFFFFFFC000000
FFFFFFFC000000
3FFFFFFC000000
0001FFFC000000
0000FFFC000000
00007FFC000000
00003FFC000000
00001FFC000000
00000FFC000000
000007FC000000
000003FC000000
000003FC000000
000001FC000000
000000FC000000
0000007C000000
0000003C000000
00000018000000
ENDCHAR
STARTCHAR 0056
ENCODING 86
SWIDTH 990 0
DWIDTH 55 0
BBX 53 50 1 -7
BITMAP
00000010000000
0000001C000000
0000003C000000
0000007C000000
000000FC000000
000001FC000000
000003FC000000
000007FC000000
00000FFC000000
00001FFC000000
00003FFC000000
00007FFC000000
0000FFFC000000
0000FFFC000000
0001FFFC000000
FFFFFFFC00FC00
FFFFFFFC00FC00
FFFFFFFC00FC00
FFFFFFFC00FC00
FFFFFFFC00FC00
FFFFFFFC00FC00
FFFFFFFC00FC00
FFFFFFFC7FFFF8
FFFFFFFC7FFFF8
FFFFFFFC7FFFF8
FFFFFFFC7FFFF8
FFFFFFFC7FFFF8
FFFFFFFC7FFFF8
FFFFFFFC00FC00
FFFFFFFC00FC00
FFFFFFFC00FC00
FFFFFFFC00FC00
FFFFFFFC00FC00
FFFFFFFC00FC00
FFFFFFFC00FC00
0003FFFC000000
0001FFFC000000
0000FFFC000000
00007FFC000000
00003FFC000000
00001FFC000000
00000FFC000000
000007FC000000
000003FC000000
000001FC000000
000001FC000000
000000FC000000
0000007C000000
0000003C000000
00000018000000
ENDCHAR
STARTCHAR 0057
ENCODING 87
SWIDTH 990 0
DWIDTH 55 0
BBX 54 52 0 -8
BITMAP
001F000003F800
00FFE0000FFF00
03FFF8003FFF80
0FFFFC007FFFE0
1FFFFE01FFFFE0
1FFFFF03FFFFF0
3FFFFF83FFFFF8
7FFFFF87FFFFF8
7FFFFFCFFFFFFC
7FFFFFCFFFFFFC
7FFFFFFFFFFFFC
FFFFFFFFFFFFFC
FFFFFFFFFFFFFC
7FFFFFFFFFFFFC
7FFFFFFFFFFFFC
7FFFFFFFFFFFFC
7FFFFFFFFFFFFC
3FFFFFFFFFFFFC
3FFFFFFFFFFFF8
1FFFFFFFFFFFF8
1FFFFFFFFFFFF0
0FFFFFFFFFFFE0
07FFFFFFFFFFE0
03FFFFFFFFFFC0
03FFFFFFFFFF80
01FFFFFFFFFF00
00FFFFFFFFFE00
007FFFFFFFFC00
003FFFFFFFF800
001FFFFFFFF000
000FFFFFFFE000
0007FFFFFFC000
0003FFFFFF8000
0001FFFFFF0000
0000FFFFFE0000
00007FFFFC0000
00003FFFFC0000
00001FFFF80000
00000FFFF00000
000007FFE00000
000003FFC00000
000001FF800000
000000FF000000
000000FE000000
0000007E000000
0000003C000000
0000003C000000
00000038000000
00000018000000
00000010000000
00000010000000
00000010000000
ENDCHAR
STARTCHAR 0058
ENCODING 88
SWIDTH 990 0
DWIDTH 55 0
BBX 45 57 5 -11
BITMAP
003E00000000
003F00000000
003F00000000
003F00000000
003F00000000
003F00000000
003F00000000
003F00000000
003F00000000
003F00000000
003F00000000
003F00000000
003F00000000
003F00000000
003F00000000
003F02000000
003F0F800000
003F1F800000
003F1F818000
003F1F87E000
003F1F87E040
003F1F87E1F0
003F1F87E1F8
303F1F87E1F8
FC3F1F87E1F8
FC3F1FCFF3F8
FC3FFFFFFFF8
FC3FFFFFFFF8
FC3FFFFFFFF8
FC3FFFFFFFF8
FC3FFFFFFFF8
FC3FFFFFFFF8
FC3FFFFFFFF8
FC3FFFFFFFF8
FC3FFFFFFFF8
FC7FFFFFFFF8
FFFFFFFFFFF8
FFFFFFFFFFF8
FFFFFFFFFFF8
FFFFFFFFFFF8
FFFFFFFFFFF8
7FFFFFFFFFF8
7FFFFFFFFFF8
3FFFFFFFFFF8
1FFFFFFFFFF8
1FFFFFFFFFF8
0FFFFFFFFFF8
07FFFFFFFFF8
07FFFFFFFFF8
03FFFFFFFFF8
01FFFFFFFFF8
01FFFFFFFFF8
00FFFFFFFFF8
007FFFFFFFF0
007FFFFFFFF0
003FFFFFFFE0
000FFFFFFFC0
ENDCHAR
STARTCHAR 0059
ENCODING 89
SWIDTH 990 0
DWIDTH 55 0
BBX 40 57 7 -10
BITMAP
00003E0000
00003E0000
00003E0000
00003E0000
00003E0000
007C3E1E00
007C3E3F00
007C3E3F00
007C3E3F00
007C3E3F00
007C3E3F00
007C3E3F04
007C3E3F1F
007C3E3F1F
007C3E3F1F
007C3E3F1F
007C3E3F1F
007C3E3F1F
007C3E3F1F
007C3E3F1F
007C3E3F1F
007C3E3F1F
007C3E3F1F
007C3E3F1F
007C3E3F1F
007C3E3F1F
307C3E3F1F
F87C3E3F1F
F87FFF7FBF
F87FFFFFFF
F87FFFFFFF
F87FFFFFFF
F87FFFFFFF
F87FFFFFFF
F87FFFFFFF
F87FFFFFFF
F87FFFFFFF
FCFFFFFFFF
FFFFFFFFFF
FFFFFFFFFF
FFFFFFFFFF
FFFFFFFFFF
7FFFFFFFFF
7FFFFFFFFF
3FFFFFFFFF
1FFFFFFFFF
1FFFFFFFFF
0FFFFFFFFF
0FFFFFFFFF
07FFFFFFFF
03FFFFFFFF
03FFFFFFFF
01FFFFFFFF
00FFFFFFFF
00FFFFFFFF
007FFFFFFE
001FFFFFF8
ENDCHAR
STARTCHAR 005A
ENCODING 90
SWIDTH 990 0
DWIDTH 55 0
BBX 54 55 0 -10
BITMAP
00000000000E00
00000000000F00
00000003000F00
00000007000F80
0000000F800780
0000001F8007C0
0000003F8007C0
0000007F8003E0
000000FF8103E0
000001FF8383E0
000003FF87C1F0
000007FF83C1F0
00000FFF83C1F0
00001FFF83E1F8
00003FFF83E0F8
00003FFF81E0F8
00007FFF81F0F8
3FFFFFFF81F0F8
FFFFFFFF81F0FC
FFFFFFFF81F0FC
FFFFFFFF81F0FC
FFFFFFFF81F07C
FFFFFFFF81F87C
FFFFFFFF80F87C
FFFFFFFF80F87C
FFFFFFFF80F87C
FFFFFFFF80F87C
FFFFFFFF80F87C
FFFFFFFF80F87C
FFFFFFFF80F87C
FFFFFFFF80F87C
FFFFFFFF81F87C
FFFFFFFF81F07C
FFFFFFFF81F0FC
FFFFFFFF81F0FC
FFFFFFFF81F0FC
FFFFFFFF81F0F8
FFFFFFFF81F0F8
7FFFFFFF81E0F8
0000FFFF83E0F8
00007FFF83E1F8
00003FFF83C1F0
00001FFF83C1F0
00000FFF87C1F0
000007FF8783E0
000003FF8783E0
000001FF8203E0
000000FF8007C0
0000007F8007C0
0000003F800780
0000003F800F80
0000001F800F00
0000000F800F00
00000007000E00
00000002000000
ENDCHAR
STARTCHAR 005B
ENCODING 91
SWIDTH 990 0
DWIDTH 55 0
BBX 53 53 1 -9
BITMAP
80000000000000
E0000000000000
F8000000000000
FE000000000000
FF800000000000
FFE00000000000
FFF80000000000
FFFE0000000000
FFFF8000000000
FFFFE000000000
FFFFF800000000
FFFFFE00000000
FFFFFF80000000
FFFFFFE0000000
FFFFFFF8000000
FFFFFFFE000000
FFFFFFFF800000
FFFFFFFFE00000
FFFFFFFFF80000
FFFFFFFFFE0000
FFFFFFFFFF8000
FFFFFFFFFFE000
FFFFFFFFFFF800
FFFFFFFFFFFE00
FFFFFFFFFFFF80
FFFFFFFFFFFFE0
FFFFFFFFFFFFF8
FFFFFFFFFFFFC0
FFFFFFFFFFFF00
FFFFFFFFFFFC00
FFFFFFFFFFF000
FFFFFFFFFFC000
FFFFFFFFFF0000
FFFFFFFFFC0000
FFFFFFFFF00000
FFFFFFFFC00000
FFFFFFFF000000
FFFFFFFC000000
FFFFFFF0000000
FFFFFFC0000000
FFFFFF00000000
FFFFFC00000000
FFFFF000000000
FFFFC000000000
FFFF0000000000
FFFC0000000000
FFF00000000000
FFC00000000000
FF000000000000
FC000000000000
F0000000000000
C0000000000000
80000000000000
ENDCHAR
STARTCHAR 005C
ENCODING 92
SWIDTH 990 0
DWIDTH 55 0
BBX 54 54 0 -9
BITMAP
FFFFFFFFFFFFFC
7FFFFFFFFFFFFC
7FFFFFFFFFFFF8
3FFFFFFFFFFFF8
3FFFFFFFFFFFF0
1FFFFFFFFFFFF0
1FFFFFFFFFFFE0
0FFFFFFFFFFFE0
0FFFFFFFFFFFC0
07FFFFFFFFFFC0
07FFFFFFFFFF80
03FFFFFFFFFF80
03FFFFFFFFFF00
01FFFFFFFFFF00
01FFFFFFFFFE00
00FFFFFFFFFE00
00FFFFFFFFFC00
007FFFFFFFFC00
003FFFFFFFF800
003FFFFFFFF800
001FFFFFFFF000
001FFFFFFFF000
000FFFFFFFE000
000FFFFFFFE000
0007FFFFFFC000
0007FFFFFFC000
0003FFFFFF8000
0003FFFFFF8000
0001FFFFFF0000
0001FFFFFF0000
0000FFFFFE0000
0000FFFFFE0000
00007FFFFC0000
00007FFFFC0000
00003FFFF80000
00003FFFF80000
00001FFFF00000
00001FFFF00000
00000FFFE00000
00000FFFE00000
000007FFC00000
000007FFC00000
000003FF800000
000003FF800000
000001FF000000
000001FF000000
000000FE000000
000000FE000000
0000007C000000
0000007C000000
00000038000000
00000038000000
00000010000000
00000010000000
ENDCHAR
STARTCHAR 005D
ENCODING 93
SWIDTH 990 0
DWIDTH 55 0
BBX 53 54 1 -9
BITMAP
00000000000008
00000000000018
00000000000078
000000000001F8
000000000007F8
00000000001FF8
00000000007FF8
0000000001FFF8
0000000007FFF8
000000001FFFF8
000000007FFFF8
00000001FFFFF8
00000007FFFFF8
0000001FFFFFF8
0000007FFFFFF8
000001FFFFFFF8
000007FFFFFFF8
00001FFFFFFFF8
00007FFFFFFFF8
0001FFFFFFFFF8
0007FFFFFFFFF8
001FFFFFFFFFF8
007FFFFFFFFFF8
01FFFFFFFFFFF8
07FFFFFFFFFFF8
1FFFFFFFFFFFF8
7FFFFFFFFFFFF8
FFFFFFFFFFFFF8
3FFFFFFFFFFFF8
0FFFFFFFFFFFF8
03FFFFFFFFFFF8
00FFFFFFFFFFF8
003FFFFFFFFFF8
000FFFFFFFFFF8
0003FFFFFFFFF8
0000FFFFFFFFF8
00003FFFFFFFF8
00000FFFFFFFF8
000003FFFFFFF8
000000FFFFFFF8
0000003FFFFFF8
0000000FFFFFF8
00000003FFFFF8
00000000FFFFF8
000000003FFFF8
000000000FFFF8
0000000003FFF8
0000000000FFF8
00000000003FF8
00000000000FF8
000000000003F8
000000000000F8
00000000000038
00000000000008
ENDCHAR
STARTCHAR 005E
ENCODING 94
SWIDTH 990 0
DWIDTH 55 0
BBX 53 19 1 8
BITMAP
00800000000800
01800000000800
03000000000400
07000000000600
0F000000000700
1E000000000380
3E0000000003C0
7FFFFFFFFFFFE0
FFFFFFFFFFFFF0
FFFFFFFFFFFFF8
7FFFFFFFFFFFF0
3FFFFFFFFFFFE0
1E0000000003C0
0E000000000780
07000000000700
03000000000600
01000000000C00
00800000000800
00800000001000
ENDCHAR
STARTCHAR 005F
ENCODING 95
SWIDTH 990 0
DWIDTH 55 0
BBX 21 57 17 -11
BITMAP
006000
00F000
01F800
03FC00
07FE00
0FFF00
1FFF80
3EFBC0
70F8E0
80F818
00F800
00F800
00F800
00F800
00F800
00F800
00F800
00F800
00F800
00F800
00F800
00F800
00F800
00F800
00F800
00F800
00F800
00F800
00F800
00F800
00F800
00F800
00F800
00F800
00F800
00F800
00F800
00F800
00F800
00F800
00F800
00F800
00F800
00F800
00F800
00F800
00F808
E0F830
3CF9E0
1FFFC0
0FFF80
07FF00
03FE00
01FC00
00F800
007000
002000
ENDCHAR
STARTCHAR 0060
ENCODING 96
SWIDTH 990 0
DWIDTH 55 0
BBX 21 57 17 -11
BITMAP
00F800
00F800
00F800
00F800
00F800
00F800
00F800
00F800
00F800
00F800
00F800
00F800
00F800
00F800
00F800
00F800
00F800
00F800
00F800
00F800
00F800
00F800
00F800
00F800
00F800
00F800
00F800
00F800
00F800
00F800
00F800
00F800
00F800
00F800
00F800
00F800
00F800
00F800
00F800
00F800
00F800
00F800
00F800
00F800
00F800
00F800
80F808
60F830
3CF9E0
1FFFC0
0FFF80
07FF00
03FE00
01FC00
00F800
007000
002000
ENDCHAR
STARTCHAR 0061
ENCODING 97
SWIDTH 990 0
DWIDTH 55 0
BBX 54 31 0 3
BITMAP
00000000000200
00000000000400
00000000000600
00000FE0000E00
00007FFE000E00
0003FFFF801F00
0007FFFFF03F00
000FFFFFF83F00
003FFFFFFE7F00
007FFFFFFFFF80
00FFFFFFFFFF80
00FFFFFFFFFF80
01FFFFFFFFFF80
03FFFFFFFFFFC0
07FFFFFFFFFFC0
07FE01FFFFFFC0
0FF0003FFFFFC0
0FC0000FFFFFE0
1F000003FFFFE0
1C000001FFFFE0
38000001FFFFF0
30000003FFFFF0
60000003FFFFF0
40000007FFFFF0
8000000FFFFFF8
0000001FFFFFF8
0000003FFFFFF8
0000007FFFFFF8
0000007FFFFFFC
000000FFFFFFFC
000001FFFFFFFC
ENDCHAR
STARTCHAR 0062
ENCODING 98
SWIDTH 990 0
DWIDTH 55 0
BBX 53 30 1 3
BITMAP
00800000000000
01800000000000
01C00000000000
01C000FFF00000
01E007FFFC0000
03E01FFFFF0000
03F07FFFFF8000
03F1FFFFFFE000
03FBFFFFFFF000
07FFFFFFFFF800
07FFFFFFFFFC00
07FFFFFFFFFC00
0FFFFFFFFFFE00
0FFFFFFFFFFF00
0FFFFFFF07FF00
0FFFFFF0007F80
1FFFFFC0001FC0
1FFFFF000007C0
1FFFFE000001E0
1FFFFC000000E0
3FFFFE00000030
3FFFFF00000010
3FFFFF80000008
3FFFFFC0000008
7FFFFFE0000000
7FFFFFE0000000
7FFFFFF0000000
FFFFFFF8000000
FFFFFFFC000000
FFFFFFFE000000
ENDCHAR
STARTCHAR 0063
ENCODING 99
SWIDTH 990 0
DWIDTH 55 0
BBX 53 58 1 -11
BITMAP
000003FE000000
000007FF000000
00000FFF800000
00000FFF800000
00000FFF800000
00000FFF800000
00000FFF800000
00000FFF800000
00000FFF800000
00000FFF800000
00000FFF800000
00000FFF800000
00000FFF800000
00000FFF800000
00000FFF800000
00000FFF800000
00000FFF800000
00000FFF800000
00000FFF800000
00000FFF800000
00000FFF800000
00000FFF800000
00000FFF800000
00000FFF800000
00000FFF800000
00000FFF800000
38000FFF8001E0
7F000FFF800FF0
FFC00FFF803FF0
FFF00FFF80FFF8
FFFC0FFF83FFF8
FFFF0FFF8FFFF8
FFFFCFFFBFFFF8
FFFFFFFFFFFFF0
7FFFFFFFFFFFF0
3FFFFFFFFFFFE0
1FFFFFFFFFFFC0
0FFFFFFFFFFF80
07FFFFFFFFFF00
03FFFFFFFFFE00
01FFFFFFFFFC00
00FFFFFFFFF800
007FFFFFFFF000
003FFFFFFFE000
001FFFFFFFC000
000FFFFFFF8000
0007FFFFFF0000
0003FFFFFE0000
0001FFFFFC0000
0000FFFFF80000
00007FFFF00000
00003FFFE00000
00001FFFC00000
00000FFF800000
000007FF000000
000003FE000000
000001FC000000
00000020000000
ENDCHAR
STARTCHAR 0064
ENCODING 100
SWIDTH 990 0
DWIDTH 55 0
BBX 53 53 1 -8
BITMAP
00000000007C00
0000000000FE00
0000000001FF00
0000000003FF80
0200000007FFC0
1F0000000FFFE0
3F8000001FFFF0
7FC000003FFFF8
FFE000007FFFF8
FFE00000FFFFF8
FFE00001FFFFF0
FFF00003FFFFF0
FFF00007FFFFE0
FFF8000FFFFFC0
FFF8001FFFFF80
FFF8003FFFFF00
FFFC007FFFFE00
FFFC00FFFFFC00
FFFC01FFFFF800
FFFC03FFFFF000
FFFE07FFFFE000
FFFE0FFFFFC000
FFFF1FFFFF8000
FFFF3FFFFF0000
FFFF7FFFFE0000
FFFFFFFFFC0000
FFFFFFFFF80000
FFFFFFFFF00000
FFFFFFFFE00000
FFFFFFFFC00000
FFFFFFFF800000
FFFFFFFF000000
FFFFFFFE000000
FFFFFFFC000000
FFFFFFF8000000
FFFFFFF0000000
FFFFFFF0000000
FFFFFFFE000000
FFFFFFFFC00000
FFFFFFFFF80000
FFFFFFFFFF0000
FFFFFFFFFFC000
FFFFFFFFFFF800
FFFFFFFFFFFC00
FFFFFFFFFFFE00
FFFFFFFFFFFF00
FFFFFFFFFFFF00
FFFFFFFFFFFF00
FFFFFFFFFFFF00
7FFFFFFFFFFE00
7FFFFFFFFFFE00
3FFFFFFFFFFC00
0FFFFFFFFFF000
ENDCHAR
STARTCHAR 0065
ENCODING 101
SWIDTH 990 0
DWIDTH 55 0
BBX 53 53 1 -8
BITMAP
03F00000000000
07F80000000000
0FFC0000000000
1FFE0000000000
3FFF0000000200
7FFF8000000FC0
FFFFC000001FE0
FFFFE000001FF0
FFFFF000003FF0
FFFFF800003FF8
FFFFFC00007FF8
7FFFFE00007FF8
3FFFFF0000FFF8
1FFFFF8000FFF8
0FFFFFC000FFF8
07FFFFE001FFF8
03FFFFF001FFF8
01FFFFF801FFF8
00FFFFFC03FFF8
007FFFFE03FFF8
003FFFFF03FFF8
001FFFFF87FFF8
000FFFFFC7FFF8
0007FFFFE7FFF8
0003FFFFFFFFF8
0001FFFFFFFFF8
0000FFFFFFFFF8
00007FFFFFFFF8
00003FFFFFFFF8
00001FFFFFFFF8
00000FFFFFFFF8
000007FFFFFFF8
000003FFFFFFF8
000001FFFFFFF8
000000FFFFFFF8
0000007FFFFFF8
000000FFFFFFF8
000003FFFFFFF8
00001FFFFFFFF8
0000FFFFFFFFF8
0007FFFFFFFFF8
003FFFFFFFFFF8
00FFFFFFFFFFF8
03FFFFFFFFFFF8
07FFFFFFFFFFF8
07FFFFFFFFFFF8
07FFFFFFFFFFF8
07FFFFFFFFFFF8
07FFFFFFFFFFF8
07FFFFFFFFFFF0
03FFFFFFFFFFE0
01FFFFFFFFFFC0
007FFFFFFFFF80
ENDCHAR
STARTCHAR 0066
ENCODING 102
SWIDTH 990 0
DWIDTH 55 0
BBX 54 49 0 -7
BITMAP
000001F0000000
000007F8000000
00000FFC000000
00001FFC000000
00003FFC000000
00007FF8000000
0000FFF8000000
0001FFF8000000
0003FFF0000000
0007FFF0000000
000FFFE0000000
001FFFE0000000
003FFFC0000000
007FFFC0000000
00FFFF80000000
01FFFF80000000
03FFFF00000000
07FFFF00000000
0FFFFE00000000
1FFFFFFFFFFFF8
3FFFFFFFFFFFFC
7FFFFFFFFFFFFC
7FFFFFFFFFFFFC
FFFFFFFFFFFFFC
FFFFFFFFFFFFFC
FFFFFFFFFFFFFC
7FFFFFFFFFFFFC
7FFFFFFFFFFFFC
3FFFFFFFFFFFFC
1FFFFFFFFFFFFC
0FFFFFFFFFFFF8
07FFFF00000000
03FFFF00000000
01FFFF80000000
00FFFF80000000
007FFFC0000000
003FFFC0000000
001FFFE0000000
000FFFE0000000
0007FFF0000000
0003FFF0000000
0001FFF8000000
0000FFF8000000
00007FF8000000
00003FFC000000
00001FFC000000
00000FFC000000
000007F8000000
000003F0000000
ENDCHAR
STARTCHAR 0067
ENCODING 103
SWIDTH 990 0
DWIDTH 55 0
BBX 54 50 0 -8
BITMAP
0000001E000000
0000003F800000
0000007FC00000
0000007FE00000
0000007FF00000
0000007FF80000
0000007FFC0000
0000003FFE0000
0000003FFF0000
0000001FFF8000
0000001FFFC000
0000000FFFE000
0000000FFFF000
00000007FFF800
00000007FFFC00
00000003FFFE00
00000003FFFF00
00000001FFFF80
00000001FFFFC0
00000001FFFFE0
3FFFFFFFFFFFF0
7FFFFFFFFFFFF8
FFFFFFFFFFFFFC
FFFFFFFFFFFFFC
FFFFFFFFFFFFFC
FFFFFFFFFFFFFC
FFFFFFFFFFFFFC
FFFFFFFFFFFFFC
FFFFFFFFFFFFF8
7FFFFFFFFFFFF0
7FFFFFFFFFFFE0
1FFFFFFFFFFFC0
00000001FFFF80
00000003FFFF00
00000003FFFE00
00000007FFFC00
00000007FFF800
0000000FFFF000
0000000FFFE000
0000001FFFC000
0000001FFF8000
0000003FFF0000
0000003FFE0000
0000003FFC0000
0000007FF80000
0000007FF00000
0000007FE00000
0000007FC00000
0000007F800000
0000003F000000
ENDCHAR
STARTCHAR 0068
ENCODING 104
SWIDTH 990 0
DWIDTH 55 0
BBX 53 57 1 -10
BITMAP
000001F8000000
000003FE000000
000007FF000000
00000FFF800000
00001FFFC00000
00003FFFE00000
00007FFFF00000
0000FFFFF80000
0001FFFFFC0000
0003FFFFFE0000
0007FFFFFF0000
000FFFFFFF8000
001FFFFFFFC000
003FFFFFFFE000
007FFFFFFFF000
00FFFFFFFFF800
01FFFFFFFFFC00
03FFFFFFFFFE00
07FFFFFFFFFF00
0FFFFFFFFFFF80
1FFFFFFFFFFFC0
3FFFFFFFFFFFE0
7FFFFFFFFFFFF0
FFFFFFFFFFFFF0
FFFFEFFFBFFFF8
FFFF8FFF8FFFF8
FFFE0FFF83FFF8
FFF80FFF80FFF8
FFE00FFF803FF8
7F800FFF800FF0
3C000FFF8001E0
00000FFF800000
00000FFF800000
00000FFF800000
00000FFF800000
00000FFF800000
00000FFF800000
00000FFF800000
00000FFF800000
00000FFF800000
00000FFF800000
00000FFF800000
00000FFF800000
00000FFF800000
00000FFF800000
00000FFF800000
00000FFF800000
00000FFF800000
00000FFF800000
00000FFF800000
00000FFF800000
00000FFF800000
00000FFF800000
00000FFF800000
00000FFF800000
000007FF800000
000003FE000000
ENDCHAR
STARTCHAR 0069
ENCODING 105
SWIDTH 990 0
DWIDTH 55 0
BBX 54 54 0 -10
BITMAP
0FFFFFFFFFFC00
1FFFFFFFFFFE00
3FFFFFFFFFFF00
7FFFFFFFFFFF80
7FFFFFFFFFFF80
FFFFFFFFFFFF80
FFFFFFFFFFFFC0
FFFFFFFFFFFF80
FFFFFFFFFFFF80
FFFFFFFFFFFF00
FFFFFFFFFFFC00
FFFFFFFFFFF000
FFFFFFFFFFC000
FFFFFFFFFE0000
FFFFFFFFF00000
FFFFFFFF800000
FFFFFFFC000000
FFFFFFF0000000
FFFFFFF8000000
FFFFFFFC000000
FFFFFFFE000000
FFFFFFFF000000
FFFFFFFF800000
FFFFFFFFC00000
FFFFFFFFE00000
FFFFFFFFF00000
FFFFFFFFF80000
FFFFFFFFFC0000
FFFFFFFFFE0000
FFFFBFFFFF0000
FFFF9FFFFF8000
FFFF0FFFFFC000
FFFF07FFFFE000
FFFF03FFFFF000
FFFE01FFFFF800
FFFE00FFFFFC00
FFFE007FFFFE00
FFFC003FFFFF00
FFFC001FFFFF80
FFFC000FFFFFC0
FFF80007FFFFE0
FFF80003FFFFF0
FFF80001FFFFF8
FFF00000FFFFFC
7FF000007FFFFC
7FE000003FFFFC
3FE000001FFFFC
1FC000000FFFFC
0700000007FFF8
0000000003FFF0
0000000001FFE0
0000000000FFC0
00000000007F80
00000000003F00
ENDCHAR
STARTCHAR 006A
ENCODING 106
SWIDTH 990 0
DWIDTH 55 0
BBX 54 54 0 -9
BITMAP
007FFFFFFFFFC0
00FFFFFFFFFFF0
01FFFFFFFFFFF8
03FFFFFFFFFFFC
07FFFFFFFFFFFC
07FFFFFFFFFFFC
07FFFFFFFFFFFC
07FFFFFFFFFFFC
03FFFFFFFFFFFC
01FFFFFFFFFFFC
007FFFFFFFFFFC
001FFFFFFFFFFC
0007FFFFFFFFFC
0000FFFFFFFFFC
00001FFFFFFFFC
000003FFFFFFFC
0000007FFFFFFC
0000003FFFFFFC
0000007FFFFFFC
000000FFFFFFFC
000001FFFFFFFC
000003FFFFFFFC
000007FFFFFFFC
00000FFFFFFFFC
00001FFFFFFFFC
00003FFFFFFFFC
00007FFFFFFFFC
0000FFFFFFFFFC
0001FFFFFFFFFC
0003FFFFF3FFFC
0007FFFFE3FFFC
000FFFFFC3FFFC
001FFFFF81FFFC
003FFFFF01FFFC
007FFFFE01FFFC
00FFFFFC00FFFC
01FFFFF800FFFC
03FFFFF000FFFC
07FFFFE0007FFC
0FFFFFC0007FFC
1FFFFF80007FFC
3FFFFF00003FFC
7FFFFE00003FFC
7FFFFC00001FFC
7FFFF800001FFC
FFFFF000000FF8
7FFFE000000FF8
7FFFC0000007F0
3FFF80000003C0
1FFF0000000000
0FFE0000000000
07FC0000000000
03F80000000000
01F00000000000
ENDCHAR
STARTCHAR 006B
ENCODING 107
SWIDTH 990 0
DWIDTH 55 0
BBX 54 47 0 -6
BITMAP
00000002000000
00000003000000
00000003800000
00000003C00000
00000003E00000
00000003F00000
00000003F80000
00000003FC0000
00000003FE0000
00000003FF0000
00000003FF8000
000003FFFFC000
00007FFFFFE000
0003FFFFFFF000
000FFFFFFFF800
003FFFFFFFFC00
00FFFFFFFFFE00
01FFFFFFFFFF00
03FFFFFFFFFF80
03FFFFFFFFFFC0
07FFFFFFFFFFE0
0FFFFFFFFFFFF0
0FFFFFFFFFFFF8
1FFFFFFFFFFFFC
1FFFFFFFFFFFF8
3FFFFC7FFFFFE0
3FFF801FFFFFC0
3FFC001FFFFF00
7FF0001FFFFC00
7FE0001FFFF000
7FC0001FFFE000
7F80001FFF8000
7F00003FFE0000
7E00003FF80000
7C00003FF00000
FC00003FC00000
F800003F000000
F800007E000000
F0000078000000
F0000060000000
E0000040000000
60000000000000
40000000000000
40000000000000
40000000000000
40000000000000
40000000000000
ENDCHAR
STARTCHAR 006C
ENCODING 108
SWIDTH 1080 0
DWIDTH 60 0
BBX 60 52 0 -8
BITMAP
0000002000000000
0000002000000000
0000006000000000
000000E000000000
000001E000000000
000003E000000000
000007E000000000
00000FE000000000
00001FE000000000
00003FE000000000
00007FE000000000
0000FFE000000000
0001FFE000000000
0003FFFFF8000000
0007FFFFFFC00000
000FFFFFFFF80000
001FFFFFFFFE0000
003FFFFFFFFF8000
007FFFFFFFFFE000
00FFFFFFFFFFF000
01FFFFFFFFFFF800
03FFFFFFFFFFFC00
07FFFFFFFFFFFC00
0FFFFFFFFFFFFE00
1FFFFFFFFFFFFF00
3FFFFFFFFFFFFF00
FFFFFFFFFFFFFF80
7FFFFFFFFFFFFF80
1FFFFFFFFFFFFFC0
07FFFFFC007FFFC0
01FFFFFC000FFFC0
00FFFFFC0007FFE0
003FFFFE0001FFE0
000FFFFE0000FFE0
0003FFFE00003FE0
0001FFFE00001FE0
00007FFE00001FE0
00001FFE00000FF0
00000FFF000007F0
000003FF000003F0
000000FF000003F0
0000003F000001F0
0000001F000001F0
00000007000000F0
00000001800000F0
0000000080000070
0000000000000070
0000000000000030
0000000000000030
0000000000000020
0000000000000010
0000000000000010
ENDCHAR
STARTCHAR 006D
ENCODING 109
SWIDTH 990 0
DWIDTH 55 0
BBX 48 57 3 -11
BITMAP
0003FFFFC000
0003FFFFC000
0003FFFFC000
0003FFFFC000
0003FFFFC000
0003FFFFC000
0003FFFFC000
0003FFFFC000
0003FFFFC000
0003FFFFC000
0003FFFFC000
0003FFFFC000
0003FFFFC000
0003FFFFC000
0003FFFFC000
0003FFFFC000
0003FFFFC000
0003FFFFC000
0003FFFFC000
0003FFFFC000
0003FFFFC000
0003FFFFC000
0003FFFFC000
0003FFFFC000
0003FFFFC000
0003FFFFC000
0003FFFFC000
0003FFFFC000
0003FFFFC000
0003FFFFC000
0003FFFFC000
FFFFFFFFFFFF
3FFFFFFFFFFE
1FFFFFFFFFFC
0FFFFFFFFFF8
0FFFFFFFFFF0
07FFFFFFFFE0
03FFFFFFFFC0
01FFFFFFFF80
00FFFFFFFF80
007FFFFFFF00
003FFFFFFE00
001FFFFFFC00
000FFFFFF800
0007FFFFF000
0003FFFFE000
0001FFFFC000
0000FFFF8000
0000FFFF0000
00007FFE0000
00003FFC0000
00001FF80000
00000FF80000
000007F00000
000003E00000
000001C00000
000000800000
ENDCHAR
STARTCHAR 006E
ENCODING 110
SWIDTH 990 0
DWIDTH 55 0
BBX 54 44 0 -4
BITMAP
00000080000000
00000180000000
00000380000000
00000780000000
00001F80000000
00003F80000000
00007F80000000
0000FF80000000
0001FF80000000
0003FF80000000
0007FF80000000
000FFF80000000
001FFF80000000
003FFFFFFFFFFC
007FFFFFFFFFFC
00FFFFFFFFFFFC
03FFFFFFFFFFFC
07FFFFFFFFFFFC
0FFFFFFFFFFFFC
1FFFFFFFFFFFFC
3FFFFFFFFFFFFC
7FFFFFFFFFFFFC
FFFFFFFFFFFFFC
3FFFFFFFFFFFFC
1FFFFFFFFFFFFC
0FFFFFFFFFFFFC
07FFFFFFFFFFFC
03FFFFFFFFFFFC
01FFFFFFFFFFFC
00FFFFFFFFFFFC
007FFFFFFFFFFC
001FFF80000000
000FFF80000000
0007FF80000000
0003FF80000000
0001FF80000000
0000FF80000000
00007F80000000
00003F80000000
00001F80000000
00000F80000000
00000780000000
00000380000000
00000180000000
ENDCHAR
STARTCHAR 006F
ENCODING 111
SWIDTH 990 0
DWIDTH 55 0
BBX 54 44 0 -4
BITMAP
00000002000000
00000003000000
00000003800000
00000003C00000
00000003E00000
00000003F00000
00000003F80000
00000003FC0000
00000003FE0000
00000003FF0000
00000003FFC000
00000003FFE000
00000003FFF000
FFFFFFFFFFF800
FFFFFFFFFFFC00
FFFFFFFFFFFE00
FFFFFFFFFFFF00
FFFFFFFFFFFF80
FFFFFFFFFFFFC0
FFFFFFFFFFFFE0
FFFFFFFFFFFFF0
FFFFFFFFFFFFF8
FFFFFFFFFFFFFC
FFFFFFFFFFFFF8
FFFFFFFFFFFFF0
FFFFFFFFFFFFE0
FFFFFFFFFFFF80
FFFFFFFFFFFF00
FFFFFFFFFFFE00
FFFFFFFFFFFC00
FFFFFFFFFFF800
00000003FFF000
00000003FFE000
00000003FFC000
00000003FF8000
00000003FF0000
00000003FE0000
00000003FC0000
00000003F00000
00000003E00000
00000003C00000
00000003800000
00000003000000
00000002000000
ENDCHAR
STARTCHAR 0070
ENCODING 112
SWIDTH 990 0
DWIDTH 55 0
BBX 47 57 4 -11
BITMAP
000001000000
000003800000
000007C00000
00000FE00000
00001FF00000
00003FF80000
00007FFC0000
0000FFFE0000
0001FFFF0000
0003FFFF8000
0007FFFF8000
000FFFFFC000
001FFFFFE000
001FFFFFF000
003FFFFFF800
007FFFFFFC00
00FFFFFFFE00
01FFFFFFFF00
03FFFFFFFF80
07FFFFFFFFC0
0FFFFFFFFFE0
1FFFFFFFFFF0
3FFFFFFFFFF8
7FFFFFFFFFF8
FFFFFFFFFFFC
0007FFFF8002
0007FFFF8000
0007FFFF8000
0007FFFF8000
0007FFFF8000
0007FFFF8000
0007FFFF8000
0007FFFF8000
0007FFFF8000
0007FFFF8000
0007FFFF8000
0007FFFF8000
0007FFFF8000
0007FFFF8000
0007FFFF8000
0007FFFF8000
0007FFFF8000
0007FFFF8000
0007FFFF8000
0007FFFF8000
0007FFFF8000
0007FFFF8000
0007FFFF8000
0007FFFF8000
0007FFFF8000
0007FFFF8000
0007FFFF8000
0007FFFF8000
0007FFFF8000
0007FFFF8000
0007FFFF8000
0007FFFF8000
ENDCHAR
STARTCHAR 0071
ENCODING 113
SWIDTH 990 0
DWIDTH 55 0
BBX 49 57 3 -11
BITMAP
00000000400000
00000000E00000
00000000E00000
00000001F00000
00000001F00000
00000003F80000
00000007F80000
00000007FC0000
0000000FFE0000
0000000FFE0000
0000001FFF0000
0000001FFF0000
0000003FFF8000
0000007FFF8000
0000007FFFC000
FF8000FFFFE000
FF8000FFFFE000
FF8001FFFFF000
FF8001FFFFF000
FF8003FFFFF800
FF8007FFFFFC00
FF8007FFFFFC00
FF800FFFFFFE00
FF800FFFFFFE00
FF801FFFFFFF00
FF803FFFFFFF80
FF800007FC0000
FF800007FC0000
FF800007FC0000
FF800007FC0000
FF800007FC0000
FF800007FC0000
FF800007FC0000
FF800007FC0000
FF800007FC0000
FF800007FC0000
FF800007FC0000
FF800007FC0000
FF800007FC0000
FF800007FC0000
FF80000FFC0000
FFC0000FFC0000
FFC0000FF80000
7FE0001FF80000
7FE0003FF80000
7FF8007FF00000
3FFC00FFF00000
3FFF07FFE00000
1FFFFFFFE00000
0FFFFFFFC00000
07FFFFFF800000
03FFFFFF000000
01FFFFFE000000
00FFFFFC000000
003FFFF0000000
000FFFC0000000
0001FE00000000
ENDCHAR
STARTCHAR 0072
ENCODING 114
SWIDTH 990 0
DWIDTH 55 0
BBX 54 46 0 -5
BITMAP
00000040000000
000001C0000000
000003C0000000
00000FC0000000
00003FC0000000
0000FFC0000000
0001FFC0000000
0007FFC0000000
001FFFC0000000
007FFFC0000000
00FFFFC0000000
03FFFFFFFFC000
0FFFFFFFFFF000
3FFFFFFFFFFC00
FFFFFFFFFFFF00
3FFFFFFFFFFF80
1FFFFFFFFFFFC0
07FFFFFFFFFFE0
01FFFFFFFFFFE0
007FFFC001FFF0
003FFFC0007FF0
000FFFC0001FF8
0003FFC0000FF8
0000FFC0000FFC
00007FC00007FC
00001FC00007FC
000007C00007FC
000001C00003FC
000000C00003FC
000000000003FC
000000000007FC
000000000007FC
000000000007FC
00000000000FF8
00000000001FF8
00000000003FF8
00000000007FF0
0000000003FFF0
0001FFFFFFFFE0
0001FFFFFFFFC0
0001FFFFFFFF80
0001FFFFFFFF00
0001FFFFFFFE00
0001FFFFFFFC00
0001FFFFFFF000
0001FFFFFF8000
ENDCHAR
STARTCHAR 0073
ENCODING 115
SWIDTH 990 0
DWIDTH 55 0
BBX 54 43 0 -4
BITMAP
000000F8000000
00003FFFF80000
0001FFFFFF0000
000FFFFFFFC000
003FFFFFFFF000
00FFFFFFFFFC00
01FFFFFFFFFE00
03FFFFFFFFFF80
07FFFFFFFFFFC0
0FFFFFFFFFFFE0
1FFFFFFFFFFFE0
3FFFFFFFFFFFF0
3FFFFFFFFFFFF8
7FFFFFFFFFFFF8
7FFFFFFFFFFFFC
7FFFFFFFFFFFFC
FFFFFFFFFFFFFC
FFFFFFFFFFFFFC
FFFFFFFFFFFFFC
FFFFFFFFFFFFFC
7FFFFFFFFFFFFC
7FFFFFFFFFFFFC
7FFFFFFFFFFFF8
7FFFFFFFFFFFF8
3FFFFFFFFFFFF8
3FFFFFFFFFFFF0
1FFFFFFFFFFFE0
0FFFFFFFFFFFC0
07FFFFFFFFFF80
03FFFFFFFFFF00
01FFFFFFFFFE00
007FFFFFFFF800
003FFFFFFFF000
000FFFFFFF8000
0001FFFFFE0000
00003FFFE00000
00001FE0000000
00001FC0000000
00001F80000000
00003F00000000
00007E00000000
0000F000000000
00030000000000
ENDCHAR
STARTCHAR 0074
ENCODING 116
SWIDTH 990 0
DWIDTH 55 0
BBX 54 46 0 -5
BITMAP
0FFFFFFFFFFFE0
7FFFFFFFFFFFF8
7FFFFFFFFFFFFC
FFFFFFFFFFFFFC
FFFFFFFFFFFFFC
FFFFFFFFFFFFFC
FFFFFFFFFFFFFC
FFFFFFFFFFFFFC
FFFFFFFFFFFFFC
FFFFFFFFFFFFFC
FFFFFFFFFFFFFC
FFFFFFFFFFFFFC
FFFFFFFFFFFFFC
FFFFFFFFFFFFFC
FFFFFFFFFFFFFC
FFFFFFFFFFFFFC
FFFFFFFFFFFFFC
FFFFFFFFFFFFFC
FFFFFFFFFFFFFC
FFFFFFFFFFFFFC
FFFFFFFFFFFFFC
FFFFFFFFFFFFFC
FFFFFFFFFFFFFC
FFFFFFFFFFFFFC
FFFFFFFFFFFFFC
FFFFFFFFFFFFFC
FFFFFFFFFFFFFC
FFFFFFFFFFFFFC
FFFFFFFFFFFFFC
FFFFFFFFFFFFFC
FFFFFFFFFFFFFC
FFFFFFFFFFFFFC
FFFFFFFFFFFFFC
7FFFFFFFFFFFFC
7FFFFFFFFFFFF8
000001FE000000
000001FC000000
000003F8000000
000003E0000000
000007C0000000
00000780000000
00000F00000000
00000E00000000
00000800000000
00001000000000
00002000000000
ENDCHAR
STARTCHAR 0075
ENCODING 117
SWIDTH 990 0
DWIDTH 55 0
BBX 54 42 0 -3
BITMAP
000003FF800000
00007FFFFC0000
0003FFFFFF8000
001FFFFFFFE000
003FFFFFFFF800
00FFFFFFFFFE00
01FFFFFFFFFF00
07FFFFFFFFFF80
0FFFFFFFFFFFC0
1FFFFFFFFFFFE0
1FFFFFFFFFFFF0
3FFFFFFFFFFFF0
3FFFFFFFFFFFF8
7FFFFFFFFFFFF8
7FFFFFFFFFFFFC
FFFFFFFFFFFFFC
FFFFFFFFFFFFFC
FFFFFFFFFFFFFC
FFFFFFFFFFFFFC
FFFFFFFFFFFFFC
FFFFFFFFFFFFFC
7FFFFFFFFFFFFC
7FFFFFFFFFFFF8
7FFFFFFFFFFFF8
3FFFFFFFFFFFF8
1FFFFFFFFFFFF0
1FFFFFFFFFFFE0
0FFFFFFFFFFFC0
07FFFFFFFFFF80
03FFFFFFFFFF00
00FFFFFFFFFE00
007FFFFFFFFC00
001FFFFFFFF000
0007FFFFFFC000
0000FFFFFE0000
00000FFFF00000
0000000FE00000
00000007E00000
00000007F00000
00000001F00000
00000000FC0000
000000001F0000
ENDCHAR
STARTCHAR 0076
ENCODING 118
SWIDTH 990 0
DWIDTH 55 0
BBX 54 45 0 -5
BITMAP
3FFFFFFFFFFFF8
7FFFFFFFFFFFFC
FFFFFFFFFFFFFC
FFFFFFFFFFFFFC
FFFFFFFFFFFFFC
FFFFFFFFFFFFFC
FFFFFFFFFFFFFC
FFFFFFFFFFFFFC
FFFFFFFFFFFFFC
FFFFFFFFFFFFFC
FFFFFFFFFFFFFC
FFFFFFFFFFFFFC
FFFFFFFFFFFFFC
FFFFFFFFFFFFFC
FFFFFFFFFFFFFC
FFFFFFFFFFFFFC
FFFFFFFFFFFFFC
FFFFFFFFFFFFFC
FFFFFFFFFFFFFC
FFFFFFFFFFFFFC
FFFFFFFFFFFFFC
FFFFFFFFFFFFFC
FFFFFFFFFFFFFC
FFFFFFFFFFFFFC
FFFFFFFFFFFFFC
FFFFFFFFFFFFFC
FFFFFFFFFFFFFC
FFFFFFFFFFFFFC
FFFFFFFFFFFFFC
FFFFFFFFFFFFFC
FFFFFFFFFFFFFC
FFFFFFFFFFFFFC
7FFFFFFFFFFFFC
7FFFFFFFFFFFF8
0FFFFFFFFFFFE0
0000007F000000
0000003F000000
0000001F800000
0000000F800000
00000007C00000
00000001C00000
00000000C00000
00000000600000
00000000200000
00000000100000
ENDCHAR
STARTCHAR 0077
ENCODING 119
SWIDTH 990 0
DWIDTH 55 0
BBX 54 54 0 -9
BITMAP
00000038000000
000000FE000000
000001FF000000
000003FF000000
000003FF000000
000003FF800000
000003FF800000
007E03FF80F800
00FF1FFF81FE00
01FFFFFFE3FE00
01FFFFFFFFFF00
01FFFFFFFFFF00
01FFFFFFFFFF00
01FFFFFFFFFF00
01FFFFFFFFFE00
00FFFFFFFFFE00
007FFFFFFFFC00
007FFFFFFFF800
007FFFFFFFF000
00FFFF01FFF000
00FFFC007FF000
00FFF8003FF800
1FFFF0001FFFE0
3FFFE0001FFFF8
7FFFE0001FFFF8
7FFFE0000FFFFC
FFFFE0000FFFFC
FFFFE0000FFFFC
7FFFE0000FFFFC
7FFFE0000FFFFC
7FFFE0001FFFF8
3FFFF0001FFFF0
07FFF0003FFF80
007FF8007FF000
007FFE00FFE000
007FFF83FFE000
003FFFFFFFF000
003FFFFFFFF800
007FFFFFFFFC00
00FFFFFFFFFE00
01FFFFFFFFFE00
01FFFFFFFFFF00
01FFFFFFFFFF00
01FFFFFFEFFF00
01FFCFFF87FF00
00FF83FF83FE00
00FE03FF81FC00
003C03FF807800
000003FF800000
000003FF800000
000003FF000000
000001FF000000
000001FE000000
0000007C000000
ENDCHAR
STARTCHAR 0078
ENCODING 120
SWIDTH 990 0
DWIDTH 55 0
BBX 54 45 0 -4
BITMAP
020E0000000000
079F0000000000
079F0000000000
07FF0000000000
07FFF800000000
03FFF800000000
7FFFF800000000
FF87F000000000
FF03E001800000
7F01F007E00000
1F01F007E07C00
0F01FC0FF0FE00
1F03FC07F0FE00
3F87FC07FFFE00
7FFFF807FFFE00
7FFFC31FFFFE00
39FF8FFFFFFC00
01FFCFFFFFF800
01E7DFFFFFFC00
01E39FFFFFFEF0
01E00FFFEFFFFC
00000FFF81FFFC
000003FF007FFC
000003FE007FFC
000003FC003FFC
000003FC003FF8
000003FC003FC0
00001FFC003F00
00003FFC003F00
00003FFE007F80
00003FFF00FFC0
00003FFF81FFF0
00001FFFFFFFF0
00000FFFFFFFF8
0000007FFFFFF8
0000003FFFFFF0
0000003FFFE3F0
0000007FFFE0C0
0000007FFFE000
0000007F8FE000
0000007F0FF000
0000003F0FF000
0000001E07E000
0000000007E000
00000000018000
ENDCHAR
STARTCHAR 0079
ENCODING 121
SWIDTH 990 0
DWIDTH 55 0
BBX 54 48 0 -6
BITMAP
00000F00000000
00007FF0000000
0001FFFC00FF00
0007FFFE03FFC0
000FFFFF83FFF0
001FFF01C7FF80
003FFC0007F800
007FFC000FF000
007FF8000FF804
00FFF8000FFDF8
01FFFC000FFFF8
01FFFE001FFFF0
03FFFF001FFFE0
1FFFFF803FFFC0
7FF0FFC03FFF80
7FE07FE07FFE00
FFE01FF0FFFC00
7FE00FF8FFFC00
3FC007FDFFFC00
1FC003FFFFFE00
07C001FFFF0000
0380007FFC0000
0000007FF80000
0000007FF00000
000000FFF00000
000003FFF80000
000007FFFC0000
00000FFFFE0000
00001FFDFF0000
00007FF9FFC000
0000FFF0FFE000
0001FFE07FF000
0003FFC03FF800
0007FF801FFC00
001FFF000FFE00
003FFE0007FF00
007FFC0003FF80
00FFF80001FFC0
03FFF00001FFE0
07FFE00000FFF0
0FFFC000007FF8
0FFF8000003FFC
0FFF0000001FFC
0FFE0000000FF8
0FFC00000007F0
07F800000003E0
03E000000003C0
00000000000100
ENDCHAR
STARTCHAR 007A
ENCODING 122
SWIDTH 990 0
DWIDTH 55 0
BBX 54 54 0 -9
BITMAP
00000000400000
00000000800000
00000001800000
00000003800000
00000007800000
0000000F000000
0000001F000000
0000003F000000
0000007F000000
0000007F000000
0000007E000000
0000007E000000
000000FE000000
000000FE000000
000000FC000000
000000FC000000
000000FC000000
000001FC000000
000001FC000000
000001F8000000
000001F8000000
000003F800000C
000003F80001F8
000003F0003FF0
01FF03F003FFE0
07FF87F07FFFC0
0FFFC7F7FFFF80
3FFFE7FFFFFF00
3FFFFFFFFFFE00
7F07FFFFFFF000
7E03FFFFFF0000
FC03FFFFF00000
FE07FFFE000000
FE1FFFE0000000
7FFFFFC0000000
7FFFCFE0000000
3FFF9FF0000000
1FFF3FF8000000
0FFC7FFC000000
01E0FFFC000000
0000FFFC000000
0001FC7E000000
0001F83E000000
0001F83E000000
0001F03E000000
0001F07C000000
0001F07C000000
0001F8FC000000
0001FFF8000000
0001FFF8000000
0000FFF0000000
00007FE0000000
00003FC0000000
00001F00000000
ENDCHAR
STARTCHAR 007B
ENCODING 123
SWIDTH 990 0
DWIDTH 55 0
BBX 54 51 0 -8
BITMAP
000000000FFC00
000000000FE000
0000000007F000
0000000007F800
0000000003FC00
0000000003FE00
00000000037F00
00000000013F80
00000000011FC0
00000000000FC0
000000000007E0
000000000003E0
000000000003F0
000000000001F0
000000000001F8
000000000000F8
000000000000F8
0000000000007C
0000000000007C
0000000000007C
0000000000007C
0000000000007C
0000000000007C
0000000000007C
F800000000007C
F800000000007C
7800000000007C
7800000000007C
7C00000000007C
7C00000000007C
7C0000000000F8
3E0000000000F8
3E0000000000F8
3E0000000001F0
1F0000000001F0
1F8000000003E0
0F8000000007E0
0FC000000007C0
07E00000000FC0
03F00000001F80
03F80000003F00
01FC000000FF00
00FF000001FE00
007FC00007FC00
003FF0003FF000
001FFF83FFE000
0007FFFFFF8000
0001FFFFFF0000
00007FFFFC0000
00000FFFE00000
00000018000000
ENDCHAR
STARTCHAR 007C
ENCODING 124
SWIDTH 990 0
DWIDTH 55 0
BBX 54 51 0 -8
BITMAP
007FE000000000
001FC000000000
001FC000000000
003F8000000000
00FF8000000000
00FF8000000000
01FD0000000000
03F10000000000
07E10000000000
07C00000000000
0FC00000000000
1F800000000000
1F000000000000
3F000000000000
3E000000000000
3E000000000000
7C000000000000
7C000000000000
7C000000000000
78000000000000
78000000000000
F8000000000000
F8000000000000
F8000000000000
F800000000007C
F800000000007C
7800000000007C
7800000000007C
7C00000000007C
7C00000000007C
7C0000000000F8
3E0000000000F8
3E0000000000F8
3E0000000001F0
1F0000000001F0
1F0000000003F0
0F8000000007E0
0FC000000007C0
07E00000000FC0
07F00000001F80
03F80000003F00
01FC0000007F00
00FF000001FE00
007F800007FC00
003FF0001FF800
001FFE01FFE000
0007FFFFFFC000
0001FFFFFF0000
00007FFFFC0000
00001FFFE00000
0000007A000000
ENDCHAR
STARTCHAR 007D
ENCODING 125
SWIDTH 504 0
DWIDTH 28 0
BBX 0 0 0 0
BITMAP
ENDCHAR
STARTCHAR 007E
ENCODING 126
SWIDTH 504 0
DWIDTH 28 0
BBX 0 0 0 0
BITMAP
ENDCHAR
STARTCHAR 00A0
ENCODING 160
SWIDTH 252 0
DWIDTH 14 0
BBX 0 0 0 0
BITMAP
ENDCHAR
STARTCHAR 00A1
ENCODING 161
SWIDTH 324 0
DWIDTH 18 0
BBX 0 0 0 0
BITMAP
ENDCHAR
STARTCHAR 00A2
ENCODING 162
SWIDTH 558 0
DWIDTH 31 0
BBX 0 0 0 0
BITMAP
ENDCHAR
STARTCHAR 00A3
ENCODING 163
SWIDTH 504 0
DWIDTH 28 0
BBX 0 0 0 0
BITMAP
ENDCHAR
STARTCHAR 00A4
ENCODING 164
SWIDTH 504 0
DWIDTH 28 0
BBX 0 0 0 0
BITMAP
ENDCHAR
STARTCHAR 00A5
ENCODING 165
SWIDTH 630 0
DWIDTH 35 0
BBX 0 0 0 0
BITMAP
ENDCHAR
STARTCHAR 00A6
ENCODING 166
SWIDTH 504 0
DWIDTH 28 0
BBX 0 0 0 0
BITMAP
ENDCHAR
STARTCHAR 00A7
ENCODING 167
SWIDTH 504 0
DWIDTH 28 0
BBX 0 0 0 0
BITMAP
ENDCHAR
STARTCHAR 00A8
ENCODING 168
SWIDTH 504 0
DWIDTH 28 0
BBX 0 0 0 0
BITMAP
ENDCHAR
STARTCHAR 00A9
ENCODING 169
SWIDTH 828 0
DWIDTH 46 0
BBX 0 0 0 0
BITMAP
ENDCHAR
STARTCHAR 00AA
ENCODING 170
SWIDTH 324 0
DWIDTH 18 0
BBX 0 0 0 0
BITMAP
ENDCHAR
STARTCHAR 00AB
ENCODING 171
SWIDTH 468 0
DWIDTH 26 0
BBX 0 0 0 0
BITMAP
ENDCHAR
STARTCHAR 00AC
ENCODING 172
SWIDTH 504 0
DWIDTH 28 0
BBX 0 0 0 0
BITMAP
ENDCHAR
STARTCHAR 00AD
ENCODING 173
SWIDTH 990 0
DWIDTH 55 0
BBX 54 54 0 -9
BITMAP
0000017E000000
00001FFFE00000
0000FFFFFC0000
0003FFFFFF0000
0007F8003FC000
001FC0000FE000
003F000003F800
007E000000FC00
00F80000003E00
01F00000001F00
03F00000080F80
07F800001C0780
079C00003C03C0
0F0E00007C03E0
0F070000FC01E0
1E038001FC00F0
1C01C003FC00F0
3C00E007FC0070
3C007807FC0078
3800000FFC0078
78007FFFFC0038
78007FFFFC003C
70007FFFFC003C
70007FFFFC003C
70007FFFFC001C
F0007FFFFC001C
F0007FFFFC001C
F0007FFFFC001C
F0007FFFFC001C
F0007FFFFC001C
70007FFFFC001C
70007FFFFC003C
70007FFFFC003C
78007FFFFC003C
7800001FFC0038
3800000FFC0078
3C000007FC0078
3C000003FD00F0
1E000001FD00F0
1E000000FD81E0
0F0000007DC1E0
078000003CE3C0
07C000001C7780
03C00000083F80
01F00000001F00
00F80000003E00
007C0000007C00
003F000001F800
001F800007F000
000FF0001FC000
0003FF83FF8000
0000FFFFFE0000
00003FFFF00000
000003FF800000
ENDCHAR
STARTCHAR 00AE
ENCODING 174
SWIDTH 828 0
DWIDTH 46 0
BBX 0 0 0 0
BITMAP
ENDCHAR
STARTCHAR 00AF
ENCODING 175
SWIDTH 324 0
DWIDTH 18 0
BBX 0 0 0 0
BITMAP
ENDCHAR
STARTCHAR 00B0
ENCODING 176
SWIDTH 324 0
DWIDTH 18 0
BBX 0 0 0 0
BITMAP
ENDCHAR
STARTCHAR 00B1
ENCODING 177
SWIDTH 504 0
DWIDTH 28 0
BBX 0 0 0 0
BITMAP
ENDCHAR
STARTCHAR 00B2
ENCODING 178
SWIDTH 504 0
DWIDTH 28 0
BBX 0 0 0 0
BITMAP
ENDCHAR
STARTCHAR 00B3
ENCODING 179
SWIDTH 504 0
DWIDTH 28 0
BBX 0 0 0 0
BITMAP
ENDCHAR
STARTCHAR 00B4
ENCODING 180
SWIDTH 504 0
DWIDTH 28 0
BBX 0 0 0 0
BITMAP
ENDCHAR
STARTCHAR 00B5
ENCODING 181
SWIDTH 576 0
DWIDTH 32 0
BBX 0 0 0 0
BITMAP
ENDCHAR
STARTCHAR 00B6
ENCODING 182
SWIDTH 504 0
DWIDTH 28 0
BBX 0 0 0 0
BITMAP
ENDCHAR
STARTCHAR 00B7
ENCODING 183
SWIDTH 252 0
DWIDTH 14 0
BBX 0 0 0 0
BITMAP
ENDCHAR
STARTCHAR 00B8
ENCODING 184
SWIDTH 504 0
DWIDTH 28 0
BBX 0 0 0 0
BITMAP
ENDCHAR
STARTCHAR 00B9
ENCODING 185
SWIDTH 504 0
DWIDTH 28 0
BBX 0 0 0 0
BITMAP
ENDCHAR
STARTCHAR 00BA
ENCODING 186
SWIDTH 360 0
DWIDTH 20 0
BBX 0 0 0 0
BITMAP
ENDCHAR
STARTCHAR 00BB
ENCODING 187
SWIDTH 468 0
DWIDTH 26 0
BBX 0 0 0 0
BITMAP
ENDCHAR
STARTCHAR 00BC
ENCODING 188
SWIDTH 846 0
DWIDTH 47 0
BBX 0 0 0 0
BITMAP
ENDCHAR
STARTCHAR 00BD
ENCODING 189
SWIDTH 972 0
DWIDTH 54 0
BBX 0 0 0 0
BITMAP
ENDCHAR
STARTCHAR 00BE
ENCODING 190
SWIDTH 846 0
DWIDTH 47 0
BBX 0 0 0 0
BITMAP
ENDCHAR
STARTCHAR 00BF
ENCODING 191
SWIDTH 360 0
DWIDTH 20 0
BBX 0 0 0 0
BITMAP
ENDCHAR
STARTCHAR 00C0
ENCODING 192
SWIDTH 756 0
DWIDTH 42 0
BBX 0 0 0 0
BITMAP
ENDCHAR
STARTCHAR 00C1
ENCODING 193
SWIDTH 756 0
DWIDTH 42 0
BBX 0 0 0 0
BITMAP
ENDCHAR
STARTCHAR 00C2
ENCODING 194
SWIDTH 756 0
DWIDTH 42 0
BBX 0 0 0 0
BITMAP
ENDCHAR
STARTCHAR 00C3
ENCODING 195
SWIDTH 756 0
DWIDTH 42 0
BBX 0 0 0 0
BITMAP
ENDCHAR
STARTCHAR 00C4
ENCODING 196
SWIDTH 756 0
DWIDTH 42 0
BBX 0 0 0 0
BITMAP
ENDCHAR
STARTCHAR 00C5
ENCODING 197
SWIDTH 756 0
DWIDTH 42 0
BBX 0 0 0 0
BITMAP
ENDCHAR
STARTCHAR 00C6
ENCODING 198
SWIDTH 1044 0
DWIDTH 58 0
BBX 0 0 0 0
BITMAP
ENDCHAR
STARTCHAR 00C7
ENCODING 199
SWIDTH 684 0
DWIDTH 38 0
BBX 0 0 0 0
BITMAP
ENDCHAR
STARTCHAR 00C8
ENCODING 200
SWIDTH 558 0
DWIDTH 31 0
BBX 0 0 0 0
BITMAP
ENDCHAR
STARTCHAR 00C9
ENCODING 201
SWIDTH 558 0
DWIDTH 31 0
BBX 0 0 0 0
BITMAP
ENDCHAR
STARTCHAR 00CA
ENCODING 202
SWIDTH 558 0
DWIDTH 31 0
BBX 0 0 0 0
BITMAP
ENDCHAR
STARTCHAR 00CB
ENCODING 203
SWIDTH 558 0
DWIDTH 31 0
BBX 0 0 0 0
BITMAP
ENDCHAR
STARTCHAR 00CC
ENCODING 204
SWIDTH 324 0
DWIDTH 18 0
BBX 0 0 0 0
BITMAP
ENDCHAR
STARTCHAR 00CD
ENCODING 205
SWIDTH 324 0
DWIDTH 18 0
BBX 0 0 0 0
BITMAP
ENDCHAR
STARTCHAR 00CE
ENCODING 206
SWIDTH 324 0
DWIDTH 18 0
BBX 0 0 0 0
BITMAP
ENDCHAR
STARTCHAR 00CF
ENCODING 207
SWIDTH 324 0
DWIDTH 18 0
BBX 0 0 0 0
BITMAP
ENDCHAR
STARTCHAR 00D0
ENCODING 208
SWIDTH 756 0
DWIDTH 42 0
BBX 0 0 0 0
BITMAP
ENDCHAR
STARTCHAR 00D1
ENCODING 209
SWIDTH 774 0
DWIDTH 43 0
BBX 0 0 0 0
BITMAP
ENDCHAR
STARTCHAR 00D2
ENCODING 210
SWIDTH 792 0
DWIDTH 44 0
BBX 0 0 0 0
BITMAP
ENDCHAR
STARTCHAR 00D3
ENCODING 211
SWIDTH 792 0
DWIDTH 44 0
BBX 0 0 0 0
BITMAP
ENDCHAR
STARTCHAR 00D4
ENCODING 212
SWIDTH 792 0
DWIDTH 44 0
BBX 0 0 0 0
BITMAP
ENDCHAR
STARTCHAR 00D5
ENCODING 213
SWIDTH 792 0
DWIDTH 44 0
BBX 0 0 0 0
BITMAP
ENDCHAR
STARTCHAR 00D6
ENCODING 214
SWIDTH 792 0
DWIDTH 44 0
BBX 0 0 0 0
BITMAP
ENDCHAR
STARTCHAR 00D7
ENCODING 215
SWIDTH 504 0
DWIDTH 28 0
BBX 0 0 0 0
BITMAP
ENDCHAR
STARTCHAR 00D8
ENCODING 216
SWIDTH 792 0
DWIDTH 44 0
BBX 0 0 0 0
BITMAP
ENDCHAR
STARTCHAR 00D9
ENCODING 217
SWIDTH 738 0
DWIDTH 41 0
BBX 0 0 0 0
BITMAP
ENDCHAR
STARTCHAR 00DA
ENCODING 218
SWIDTH 738 0
DWIDTH 41 0
BBX 0 0 0 0
BITMAP
ENDCHAR
STARTCHAR 00DB
ENCODING 219
SWIDTH 738 0
DWIDTH 41 0
BBX 0 0 0 0
BITMAP
ENDCHAR
STARTCHAR 00DC
ENCODING 220
SWIDTH 738 0
DWIDTH 41 0
BBX 0 0 0 0
BITMAP
ENDCHAR
STARTCHAR 00DD
ENCODING 221
SWIDTH 612 0
DWIDTH 34 0
BBX 0 0 0 0
BITMAP
ENDCHAR
STARTCHAR 00DE
ENCODING 222
SWIDTH 558 0
DWIDTH 31 0
BBX 0 0 0 0
BITMAP
ENDCHAR
STARTCHAR 00DF
ENCODING 223
SWIDTH 612 0
DWIDTH 34 0
BBX 0 0 0 0
BITMAP
ENDCHAR
STARTCHAR 00E0
ENCODING 224
SWIDTH 450 0
DWIDTH 25 0
BBX 0 0 0 0
BITMAP
ENDCHAR
STARTCHAR 00E1
ENCODING 225
SWIDTH 450 0
DWIDTH 25 0
BBX 0 0 0 0
BITMAP
ENDCHAR
STARTCHAR 00E2
ENCODING 226
SWIDTH 450 0
DWIDTH 25 0
BBX 0 0 0 0
BITMAP
ENDCHAR
STARTCHAR 00E3
ENCODING 227
SWIDTH 450 0
DWIDTH 25 0
BBX 0 0 0 0
BITMAP
ENDCHAR
STARTCHAR 00E4
ENCODING 228
SWIDTH 450 0
DWIDTH 25 0
BBX 0 0 0 0
BITMAP
ENDCHAR
STARTCHAR 00E5
ENCODING 229
SWIDTH 450 0
DWIDTH 25 0
BBX 0 0 0 0
BITMAP
ENDCHAR
STARTCHAR 00E6
ENCODING 230
SWIDTH 720 0
DWIDTH 40 0
BBX 0 0 0 0
BITMAP
ENDCHAR
STARTCHAR 00E7
ENCODING 231
SWIDTH 450 0
DWIDTH 25 0
BBX 0 0 0 0
BITMAP
ENDCHAR
STARTCHAR 00E8
ENCODING 232
SWIDTH 450 0
DWIDTH 25 0
BBX 0 0 0 0
BITMAP
ENDCHAR
STARTCHAR 00E9
ENCODING 233
SWIDTH 450 0
DWIDTH 25 0
BBX 0 0 0 0
BITMAP
ENDCHAR
STARTCHAR 00EA
ENCODING 234
SWIDTH 450 0
DWIDTH 25 0
BBX 0 0 0 0
BITMAP
ENDCHAR
STARTCHAR 00EB
ENCODING 235
SWIDTH 450 0
DWIDTH 25 0
BBX 0 0 0 0
BITMAP
ENDCHAR
STARTCHAR 00EC
ENCODING 236
SWIDTH 252 0
DWIDTH 14 0
BBX 0 0 0 0
BITMAP
ENDCHAR
STARTCHAR 00ED
ENCODING 237
SWIDTH 252 0
DWIDTH 14 0
BBX 0 0 0 0
BITMAP
ENDCHAR
STARTCHAR 00EE
ENCODING 238
SWIDTH 252 0
DWIDTH 14 0
BBX 0 0 0 0
BITMAP
ENDCHAR
STARTCHAR 00EF
ENCODING 239
SWIDTH 252 0
DWIDTH 14 0
BBX 0 0 0 0
BITMAP
ENDCHAR
STARTCHAR 00F0
ENCODING 240
SWIDTH 558 0
DWIDTH 31 0
BBX 0 0 0 0
BITMAP
ENDCHAR
STARTCHAR 00F1
ENCODING 241
SWIDTH 540 0
DWIDTH 30 0
BBX 0 0 0 0
BITMAP
ENDCHAR
STARTCHAR 00F2
ENCODING 242
SWIDTH 504 0
DWIDTH 28 0
BBX 0 0 0 0
BITMAP
ENDCHAR
STARTCHAR 00F3
ENCODING 243
SWIDTH 504 0
DWIDTH 28 0
BBX 0 0 0 0
BITMAP
ENDCHAR
STARTCHAR 00F4
ENCODING 244
SWIDTH 504 0
DWIDTH 28 0
BBX 0 0 0 0
BITMAP
ENDCHAR
STARTCHAR 00F5
ENCODING 245
SWIDTH 504 0
DWIDTH 28 0
BBX 0 0 0 0
BITMAP
ENDCHAR
STARTCHAR 00F6
ENCODING 246
SWIDTH 504 0
DWIDTH 28 0
BBX 0 0 0 0
BITMAP
ENDCHAR
STARTCHAR 00F7
ENCODING 247
SWIDTH 504 0
DWIDTH 28 0
BBX 0 0 0 0
BITMAP
ENDCHAR
STARTCHAR 00F8
ENCODING 248
SWIDTH 504 0
DWIDTH 28 0
BBX 0 0 0 0
BITMAP
ENDCHAR
STARTCHAR 00F9
ENCODING 249
SWIDTH 522 0
DWIDTH 29 0
BBX 0 0 0 0
BITMAP
ENDCHAR
STARTCHAR 00FA
ENCODING 250
SWIDTH 522 0
DWIDTH 29 0
BBX 0 0 0 0
BITMAP
ENDCHAR
STARTCHAR 00FB
ENCODING 251
SWIDTH 522 0
DWIDTH 29 0
BBX 0 0 0 0
BITMAP
ENDCHAR
STARTCHAR 00FC
ENCODING 252
SWIDTH 522 0
DWIDTH 29 0
BBX 0 0 0 0
BITMAP
ENDCHAR
STARTCHAR 00FD
ENCODING 253
SWIDTH 432 0
DWIDTH 24 0
BBX 0 0 0 0
BITMAP
ENDCHAR
STARTCHAR 00FE
ENCODING 254
SWIDTH 504 0
DWIDTH 28 0
BBX 0 0 0 0
BITMAP
ENDCHAR
STARTCHAR 00FF
ENCODING 255
SWIDTH 432 0
DWIDTH 24 0
BBX 0 0 0 0
BITMAP
ENDCHAR
STARTCHAR 0131
ENCODING 305
SWIDTH 252 0
DWIDTH 14 0
BBX 0 0 0 0
BITMAP
ENDCHAR
STARTCHAR 02C6
ENCODING 710
SWIDTH 504 0
DWIDTH 28 0
BBX 0 0 0 0
BITMAP
ENDCHAR
STARTCHAR 02C7
ENCODING 711
SWIDTH 504 0
DWIDTH 28 0
BBX 0 0 0 0
BITMAP
ENDCHAR
STARTCHAR 02C9
ENCODING 713
SWIDTH 504 0
DWIDTH 28 0
BBX 0 0 0 0
BITMAP
ENDCHAR
STARTCHAR 02D8
ENCODING 728
SWIDTH 504 0
DWIDTH 28 0
BBX 0 0 0 0
BITMAP
ENDCHAR
STARTCHAR 02D9
ENCODING 729
SWIDTH 504 0
DWIDTH 28 0
BBX 0 0 0 0
BITMAP
ENDCHAR
STARTCHAR 02DA
ENCODING 730
SWIDTH 504 0
DWIDTH 28 0
BBX 0 0 0 0
BITMAP
ENDCHAR
STARTCHAR 02DB
ENCODING 731
SWIDTH 504 0
DWIDTH 28 0
BBX 0 0 0 0
BITMAP
ENDCHAR
STARTCHAR 02DC
ENCODING 732
SWIDTH 504 0
DWIDTH 28 0
BBX 0 0 0 0
BITMAP
ENDCHAR
STARTCHAR 02DD
ENCODING 733
SWIDTH 504 0
DWIDTH 28 0
BBX 0 0 0 0
BITMAP
ENDCHAR
STARTCHAR 037E
ENCODING 894
SWIDTH 990 0
DWIDTH 55 0
BBX 54 54 0 -9
BITMAP
00000078000000
00000078000000
00000078000000
00000078000000
00000078000000
00000078000000
00000078000000
00000078000000
00000078000000
00000078000000
00000078000000
00000078000000
00000078000000
00000078000000
00000078000000
00000078000000
00000078000000
00000078000000
00000078000000
00000078000000
00000078000000
00000078000000
00000078000000
00000078000000
00000078000000
FFFFFFFFFFFFFC
FFFFFFFFFFFFFC
FFFFFFFFFFFFFC
FFFFFFFFFFFFFC
00000078000000
00000078000000
00000078000000
00000078000000
00000078000000
00000078000000
00000078000000
00000078000000
00000078000000
00000078000000
00000078000000
00000078000000
00000078000000
00000078000000
00000078000000
00000078000000
00000078000000
00000078000000
00000078000000
00000078000000
00000078000000
00000078000000
00000078000000
00000078000000
00000078000000
ENDCHAR
STARTCHAR 2013
ENCODING 8211
SWIDTH 540 0
DWIDTH 30 0
BBX 0 0 0 0
BITMAP
ENDCHAR
STARTCHAR 2014
ENCODING 8212
SWIDTH 1008 0
DWIDTH 56 0
BBX 0 0 0 0
BITMAP
ENDCHAR
STARTCHAR 2018
ENCODING 8216
SWIDTH 270 0
DWIDTH 15 0
BBX 0 0 0 0
BITMAP
ENDCHAR
STARTCHAR 2019
ENCODING 8217
SWIDTH 270 0
DWIDTH 15 0
BBX 0 0 0 0
BITMAP
ENDCHAR
STARTCHAR 201A
ENCODING 8218
SWIDTH 270 0
DWIDTH 15 0
BBX 0 0 0 0
BITMAP
ENDCHAR
STARTCHAR 201C
ENCODING 8220
SWIDTH 450 0
DWIDTH 25 0
BBX 0 0 0 0
BITMAP
ENDCHAR
STARTCHAR 201D
ENCODING 8221
SWIDTH 450 0
DWIDTH 25 0
BBX 0 0 0 0
BITMAP
ENDCHAR
STARTCHAR 201E
ENCODING 8222
SWIDTH 450 0
DWIDTH 25 0
BBX 0 0 0 0
BITMAP
ENDCHAR
STARTCHAR 2020
ENCODING 8224
SWIDTH 504 0
DWIDTH 28 0
BBX 0 0 0 0
BITMAP
ENDCHAR
STARTCHAR 2021
ENCODING 8225
SWIDTH 504 0
DWIDTH 28 0
BBX 0 0 0 0
BITMAP
ENDCHAR
STARTCHAR 2022
ENCODING 8226
SWIDTH 504 0
DWIDTH 28 0
BBX 0 0 0 0
BITMAP
ENDCHAR
STARTCHAR 2026
ENCODING 8230
SWIDTH 1008 0
DWIDTH 56 0
BBX 0 0 0 0
BITMAP
ENDCHAR
STARTCHAR 2039
ENCODING 8249
SWIDTH 306 0
DWIDTH 17 0
BBX 0 0 0 0
BITMAP
ENDCHAR
STARTCHAR 203A
ENCODING 8250
SWIDTH 306 0
DWIDTH 17 0
BBX 0 0 0 0
BITMAP
ENDCHAR
STARTCHAR 2044
ENCODING 8260
SWIDTH 162 0
DWIDTH 9 0
BBX 0 0 0 0
BITMAP
ENDCHAR
STARTCHAR 20A3
ENCODING 8355
SWIDTH 504 0
DWIDTH 28 0
BBX 0 0 0 0
BITMAP
ENDCHAR
STARTCHAR 20A4
ENCODING 8356
SWIDTH 504 0
DWIDTH 28 0
BBX 0 0 0 0
BITMAP
ENDCHAR
STARTCHAR 20A7
ENCODING 8359
SWIDTH 990 0
DWIDTH 55 0
BBX 0 0 0 0
BITMAP
ENDCHAR
STARTCHAR 20AC
ENCODING 8364
SWIDTH 504 0
DWIDTH 28 0
BBX 0 0 0 0
BITMAP
ENDCHAR
STARTCHAR 2116
ENCODING 8470
SWIDTH 1116 0
DWIDTH 62 0
BBX 0 0 0 0
BITMAP
ENDCHAR
STARTCHAR 2122
ENCODING 8482
SWIDTH 738 0
DWIDTH 41 0
BBX 0 0 0 0
BITMAP
ENDCHAR
STARTCHAR 2202
ENCODING 8706
SWIDTH 504 0
DWIDTH 28 0
BBX 0 0 0 0
BITMAP
ENDCHAR
STARTCHAR 2206
ENCODING 8710
SWIDTH 540 0
DWIDTH 30 0
BBX 0 0 0 0
BITMAP
ENDCHAR
STARTCHAR 220F
ENCODING 8719
SWIDTH 738 0
DWIDTH 41 0
BBX 0 0 0 0
BITMAP
ENDCHAR
STARTCHAR 2211
ENCODING 8721
SWIDTH 594 0
DWIDTH 33 0
BBX 0 0 0 0
BITMAP
ENDCHAR
STARTCHAR 2212
ENCODING 8722
SWIDTH 504 0
DWIDTH 28 0
BBX 0 0 0 0
BITMAP
ENDCHAR
STARTCHAR 2215
ENCODING 8725
SWIDTH 162 0
DWIDTH 9 0
BBX 0 0 0 0
BITMAP
ENDCHAR
STARTCHAR 2219
ENCODING 8729
SWIDTH 252 0
DWIDTH 14 0
BBX 0 0 0 0
BITMAP
ENDCHAR
STARTCHAR 221A
ENCODING 8730
SWIDTH 504 0
DWIDTH 28 0
BBX 0 0 0 0
BITMAP
ENDCHAR
STARTCHAR 221E
ENCODING 8734
SWIDTH 504 0
DWIDTH 28 0
BBX 0 0 0 0
BITMAP
ENDCHAR
STARTCHAR 222B
ENCODING 8747
SWIDTH 324 0
DWIDTH 18 0
BBX 0 0 0 0
BITMAP
ENDCHAR
STARTCHAR 2248
ENCODING 8776
SWIDTH 504 0
DWIDTH 28 0
BBX 0 0 0 0
BITMAP
ENDCHAR
STARTCHAR 2264
ENCODING 8804
SWIDTH 504 0
DWIDTH 28 0
BBX 0 0 0 0
BITMAP
ENDCHAR
STARTCHAR 2265
ENCODING 8805
SWIDTH 504 0
DWIDTH 28 0
BBX 0 0 0 0
BITMAP
ENDCHAR
STARTCHAR F001
ENCODING 61441
SWIDTH 522 0
DWIDTH 29 0
BBX 0 0 0 0
BITMAP
ENDCHAR
STARTCHAR F002
ENCODING 61442
SWIDTH 540 0
DWIDTH 30 0
BBX 0 0 0 0
BITMAP
ENDCHAR
STARTCHAR FB01
ENCODING 64257
SWIDTH 522 0
DWIDTH 29 0
BBX 0 0 0 0
BITMAP
ENDCHAR
STARTCHAR FB02
ENCODING 64258
SWIDTH 540 0
DWIDTH 30 0
BBX 0 0 0 0
BITMAP
ENDCHAR
ENDFONT
